# Blender 4.4.3
# www.blender.org
mtllib table.mtl
o Cube
v 0.000000 3.000000 0.000000
v 0.000000 3.600000 0.000000
v 0.000000 3.000000 -8.000000
v 0.000000 3.600000 -8.000000
v 6.000000 3.000000 0.000000
v 6.000000 3.600000 0.000000
v 6.000000 3.000000 -8.000000
v 6.000000 3.600000 -8.000000
v 5.220000 3.000000 -7.750000
v 5.220000 3.000000 -7.350000
v 5.580000 3.000000 -7.750000
v 5.580000 3.000000 -7.350000
v 5.220000 0.000000 -7.750000
v 5.220000 0.000000 -7.350000
v 5.580000 0.000000 -7.750000
v 5.580000 0.000000 -7.350000
v -6.000000 3.000000 0.000000
v -6.000000 3.600000 0.000000
v -6.000000 3.000000 -8.000000
v -6.000000 3.600000 -8.000000
v -5.220000 3.000000 -7.750000
v -5.220000 3.000000 -7.350000
v -5.580000 3.000000 -7.750000
v -5.580000 3.000000 -7.350000
v -5.220000 0.000000 -7.750000
v -5.220000 0.000000 -7.350000
v -5.580000 0.000000 -7.750000
v -5.580000 0.000000 -7.350000
v 0.000000 3.000000 8.000000
v 0.000000 3.600000 8.000000
v 6.000000 3.000000 8.000000
v 6.000000 3.600000 8.000000
v 5.220000 3.000000 7.750000
v 5.220000 3.000000 7.350000
v 5.580000 3.000000 7.750000
v 5.580000 3.000000 7.350000
v 5.220000 0.000000 7.750000
v 5.220000 0.000000 7.350000
v 5.580000 0.000000 7.750000
v 5.580000 0.000000 7.350000
v -6.000000 3.000000 8.000000
v -6.000000 3.600000 8.000000
v -5.220000 3.000000 7.750000
v -5.220000 3.000000 7.350000
v -5.580000 3.000000 7.750000
v -5.580000 3.000000 7.350000
v -5.220000 0.000000 7.750000
v -5.220000 0.000000 7.350000
v -5.580000 0.000000 7.750000
v -5.580000 0.000000 7.350000
vn -1.0000 -0.0000 -0.0000
vn -0.0000 -0.0000 -1.0000
vn 1.0000 -0.0000 -0.0000
vn -0.0000 -0.0000 1.0000
vn -0.0000 -1.0000 -0.0000
vn -0.0000 1.0000 -0.0000
vt 0.375000 0.000000
vt 0.625000 0.000000
vt 0.625000 0.250000
vt 0.375000 0.250000
vt 0.625000 0.500000
vt 0.375000 0.500000
vt 0.625000 0.750000
vt 0.375000 0.750000
vt 0.625000 1.000000
vt 0.375000 1.000000
vt 0.875000 0.500000
vt 0.875000 0.750000
vt 0.125000 0.500000
vt 0.125000 0.750000
s 0
f 1/1/1 2/2/1 4/3/1 3/4/1
f 3/4/2 4/3/2 8/5/2 7/6/2
f 7/6/3 8/5/3 6/7/3 5/8/3
f 5/8/4 6/7/4 2/9/4 1/10/4
f 7/6/5 5/8/5 12/8/5 11/6/5
f 8/5/6 4/11/6 2/12/6 6/7/6
f 12/8/4 10/10/4 14/10/4 16/8/4
f 5/8/5 1/10/5 10/10/5 12/8/5
f 3/4/5 7/6/5 11/6/5 9/4/5
f 1/1/5 3/4/5 9/4/5 10/1/5
f 13/13/5 15/6/5 16/8/5 14/14/5
f 9/4/2 11/6/2 15/6/2 13/4/2
f 11/6/3 12/8/3 16/8/3 15/6/3
f 10/1/1 9/4/1 13/4/1 14/1/1
f 3/4/2 19/6/2 20/5/2 4/3/2
f 19/6/1 17/8/1 18/7/1 20/5/1
f 17/8/4 1/10/4 2/9/4 18/7/4
f 19/6/5 23/6/5 24/8/5 17/8/5
f 20/5/6 18/7/6 2/12/6 4/11/6
f 24/8/4 28/8/4 26/10/4 22/10/4
f 17/8/5 24/8/5 22/10/5 1/10/5
f 3/4/5 21/4/5 23/6/5 19/6/5
f 1/1/5 22/1/5 21/4/5 3/4/5
f 25/13/5 26/14/5 28/8/5 27/6/5
f 21/4/2 25/4/2 27/6/2 23/6/2
f 23/6/1 27/6/1 28/8/1 24/8/1
f 22/1/3 26/1/3 25/4/3 21/4/3
f 1/1/1 29/4/1 30/3/1 2/2/1
f 29/4/4 31/6/4 32/5/4 30/3/4
f 31/6/3 5/8/3 6/7/3 32/5/3
f 31/6/5 35/6/5 36/8/5 5/8/5
f 32/5/6 6/7/6 2/12/6 30/11/6
f 36/8/2 40/8/2 38/10/2 34/10/2
f 5/8/5 36/8/5 34/10/5 1/10/5
f 29/4/5 33/4/5 35/6/5 31/6/5
f 1/1/5 34/1/5 33/4/5 29/4/5
f 37/13/5 38/14/5 40/8/5 39/6/5
f 33/4/4 37/4/4 39/6/4 35/6/4
f 35/6/3 39/6/3 40/8/3 36/8/3
f 34/1/1 38/1/1 37/4/1 33/4/1
f 29/4/4 30/3/4 42/5/4 41/6/4
f 41/6/1 42/5/1 18/7/1 17/8/1
f 41/6/5 17/8/5 46/8/5 45/6/5
f 42/5/6 30/11/6 2/12/6 18/7/6
f 46/8/2 44/10/2 48/10/2 50/8/2
f 17/8/5 1/10/5 44/10/5 46/8/5
f 29/4/5 41/6/5 45/6/5 43/4/5
f 1/1/5 29/4/5 43/4/5 44/1/5
f 47/13/5 49/6/5 50/8/5 48/14/5
f 43/4/4 45/6/4 49/6/4 47/4/4
f 45/6/1 46/8/1 50/8/1 49/6/1
f 44/1/3 43/4/3 47/4/3 48/1/3
