# Blender 4.4.3
# www.blender.org
mtllib arch.mtl
o Cube
v -1.406250 0.000000 0.500000
v -1.406250 2.250000 0.500000
v -1.406250 0.000000 -0.500000
v -1.406250 2.250000 -0.500000
v -1.093750 0.000000 0.500000
v -1.093750 2.250000 0.500000
v -1.093750 0.000000 -0.500000
v -1.093750 2.250000 -0.500000
v -1.351542 2.727845 0.500000
v -1.351542 2.727845 -0.500000
v -1.049690 2.646964 -0.500000
v -1.049690 2.646964 0.500000
v -1.224656 3.180814 0.500000
v -1.224657 3.180814 -0.500000
v -0.954024 3.024564 -0.500000
v -0.954024 3.024564 0.500000
v -1.025537 3.515050 0.500000
v -1.025538 3.515050 -0.500000
v -0.804567 3.294079 -0.500000
v -0.804567 3.294079 0.500000
v -0.746255 3.786803 0.500000
v -0.746256 3.786803 -0.500000
v -0.590006 3.516170 -0.500000
v -0.590006 3.516170 0.500000
v -0.492065 3.927412 0.500000
v -0.492065 3.927412 -0.500000
v -0.411184 3.625561 -0.500000
v -0.411184 3.625561 0.500000
v -0.118460 3.997441 0.500000
v -0.118460 3.997441 -0.500000
v -0.118460 3.684941 -0.500000
v -0.118460 3.684941 0.500000
v 0.000000 3.997441 0.499999
v 0.000000 3.997441 -0.500000
v 0.000000 3.684941 -0.500000
v 0.000000 3.684941 0.499999
v 1.406250 0.000000 0.500000
v 1.406250 2.250000 0.500000
v 1.406250 0.000000 -0.500000
v 1.406250 2.250000 -0.500000
v 1.093750 0.000000 0.500000
v 1.093750 2.250000 0.500000
v 1.093750 0.000000 -0.500000
v 1.093750 2.250000 -0.500000
v 1.351542 2.727845 0.500000
v 1.351542 2.727845 -0.500000
v 1.049690 2.646964 -0.500000
v 1.049690 2.646964 0.500000
v 1.224656 3.180814 0.500000
v 1.224657 3.180814 -0.500000
v 0.954024 3.024564 -0.500000
v 0.954024 3.024564 0.500000
v 1.025537 3.515050 0.500000
v 1.025538 3.515050 -0.500000
v 0.804567 3.294079 -0.500000
v 0.804567 3.294079 0.500000
v 0.746255 3.786803 0.500000
v 0.746256 3.786803 -0.500000
v 0.590006 3.516170 -0.500000
v 0.590006 3.516170 0.500000
v 0.492065 3.927412 0.500000
v 0.492065 3.927412 -0.500000
v 0.411184 3.625561 -0.500000
v 0.411184 3.625561 0.500000
v 0.118460 3.997441 0.500000
v 0.118460 3.997441 -0.500000
v 0.118460 3.684941 -0.500000
v 0.118460 3.684941 0.500000
vn -0.5774 -0.5773 0.5774
vn -0.7183 0.0410 0.6945
vn -0.5773 -0.5774 -0.5774
vn -0.7183 0.0410 -0.6945
vn 0.5773 -0.5774 0.5774
vn 0.6932 -0.0384 0.7198
vn 0.5774 -0.5773 -0.5774
vn 0.6932 -0.0383 -0.7198
vn -0.7106 0.1393 0.6897
vn -0.7106 0.1393 -0.6897
vn 0.6798 -0.1232 -0.7229
vn 0.6798 -0.1232 0.7229
vn -0.6750 0.2895 0.6786
vn -0.6750 0.2895 -0.6787
vn 0.6281 -0.2488 -0.7373
vn 0.6281 -0.2489 0.7373
vn -0.5763 0.4549 0.6789
vn -0.5763 0.4549 -0.6789
vn 0.5426 -0.4017 -0.7377
vn 0.5426 -0.4017 0.7377
vn -0.4379 0.5900 0.6784
vn -0.4379 0.5899 -0.6784
vn 0.4230 -0.5276 -0.7367
vn 0.4230 -0.5276 0.7367
vn -0.2503 0.6960 0.6730
vn -0.2504 0.6960 -0.6730
vn 0.2427 -0.6173 -0.7483
vn 0.2427 -0.6173 0.7483
vn -0.0672 0.7237 0.6869
vn -0.0672 0.7237 -0.6869
vn 0.0682 -0.6797 -0.7303
vn 0.0682 -0.6797 0.7303
vn 0.3333 0.6667 0.6667
vn 0.3333 0.6667 -0.6667
vn 0.3333 -0.6667 -0.6666
vn 0.3333 -0.6667 0.6666
vn 0.5774 -0.5773 0.5774
vn 0.7183 0.0410 0.6945
vn 0.5773 -0.5774 -0.5774
vn 0.7183 0.0410 -0.6945
vn -0.5773 -0.5774 0.5774
vn -0.6932 -0.0384 0.7198
vn -0.5774 -0.5773 -0.5774
vn -0.6932 -0.0383 -0.7198
vn 0.7106 0.1393 0.6897
vn 0.7106 0.1393 -0.6897
vn -0.6798 -0.1232 -0.7229
vn -0.6798 -0.1232 0.7229
vn 0.6750 0.2895 0.6786
vn 0.6750 0.2895 -0.6786
vn -0.6281 -0.2488 -0.7373
vn -0.6281 -0.2489 0.7373
vn 0.5763 0.4549 0.6789
vn 0.5763 0.4549 -0.6789
vn -0.5426 -0.4017 -0.7377
vn -0.5426 -0.4017 0.7377
vn 0.4379 0.5899 0.6784
vn 0.4379 0.5899 -0.6784
vn -0.4230 -0.5276 -0.7367
vn -0.4230 -0.5276 0.7367
vn 0.2504 0.6960 0.6730
vn 0.2503 0.6960 -0.6730
vn -0.2427 -0.6173 -0.7483
vn -0.2427 -0.6173 0.7483
vn 0.0672 0.7237 0.6869
vn 0.0672 0.7237 -0.6869
vn -0.0682 -0.6797 -0.7303
vn -0.0682 -0.6797 0.7303
vt 0.625000 0.000000
vt 0.375000 0.250000
vt 0.375000 0.000000
vt 0.625000 0.250000
vt 0.375000 0.500000
vt 0.625000 0.500000
vt 0.375000 0.750000
vt 0.625000 0.750000
vt 0.375000 1.000000
vt 0.125000 0.750000
vt 0.125000 0.500000
vt 0.625000 1.000000
vt 0.875000 0.500000
vt 0.875000 0.750000
s 1
f 2/1/2 3/2/3 1/3/1
f 4/4/4 7/5/7 3/2/3
f 8/6/8 5/7/5 7/5/7
f 6/8/6 1/9/1 5/7/5
f 7/5/7 1/10/1 3/11/3
f 8/6/8 12/8/12 6/8/6
f 9/12/9 16/8/16 13/12/13
f 2/1/2 10/4/10 4/4/4
f 2/12/2 12/8/12 9/12/9
f 4/4/4 11/6/11 8/6/8
f 15/6/15 20/8/20 16/8/16
f 10/4/10 15/6/15 11/6/11
f 11/6/11 16/8/16 12/8/12
f 9/1/9 14/4/14 10/4/10
f 19/6/19 24/8/24 20/8/20
f 14/4/14 17/1/17 18/4/18
f 13/12/13 20/8/20 17/12/17
f 14/4/14 19/6/19 15/6/15
f 23/6/23 28/8/28 24/8/24
f 17/1/17 22/4/22 18/4/18
f 17/12/17 24/8/24 21/12/21
f 18/4/18 23/6/23 19/6/19
f 26/4/26 29/1/29 30/4/30
f 22/4/22 25/1/25 26/4/26
f 21/12/21 28/8/28 25/12/25
f 22/4/22 27/6/27 23/6/23
f 31/6/31 36/8/36 32/8/32
f 25/12/25 32/8/32 29/12/29
f 26/4/26 31/6/31 27/6/27
f 27/6/27 32/8/32 28/8/28
f 34/13/34 36/8/36 35/6/35
f 30/4/30 33/1/33 34/4/34
f 29/12/29 36/8/36 33/12/33
f 30/4/30 35/6/35 31/6/31
f 39/2/39 38/1/38 37/3/37
f 43/5/43 40/4/40 39/2/39
f 41/7/41 44/6/44 43/5/43
f 37/9/37 42/8/42 41/7/41
f 37/10/37 43/5/43 39/11/39
f 48/8/48 44/6/44 42/8/42
f 45/12/45 52/8/52 48/8/48
f 46/4/46 38/1/38 40/4/40
f 38/12/38 48/8/48 42/8/42
f 47/6/47 40/4/40 44/6/44
f 56/8/56 51/6/51 52/8/52
f 51/6/51 46/4/46 47/6/47
f 52/8/52 47/6/47 48/8/48
f 50/4/50 45/1/45 46/4/46
f 60/8/60 55/6/55 56/8/56
f 54/4/54 49/1/49 50/4/50
f 49/12/49 56/8/56 52/8/52
f 55/6/55 50/4/50 51/6/51
f 64/8/64 59/6/59 60/8/60
f 58/4/58 53/1/53 54/4/54
f 53/12/53 60/8/60 56/8/56
f 59/6/59 54/4/54 55/6/55
f 62/4/62 65/1/65 61/1/61
f 62/4/62 57/1/57 58/4/58
f 57/12/57 64/8/64 60/8/60
f 63/6/63 58/4/58 59/6/59
f 36/8/36 67/6/67 68/8/68
f 61/12/61 68/8/68 64/8/64
f 67/6/67 62/4/62 63/6/63
f 68/8/68 63/6/63 64/8/64
f 66/4/66 33/1/33 65/1/65
f 65/12/65 36/8/36 68/8/68
f 35/6/35 66/4/66 67/6/67
f 2/1/2 4/4/4 3/2/3
f 4/4/4 8/6/8 7/5/7
f 8/6/8 6/8/6 5/7/5
f 6/8/6 2/12/2 1/9/1
f 7/5/7 5/7/5 1/10/1
f 8/6/8 11/6/11 12/8/12
f 9/12/9 12/8/12 16/8/16
f 2/1/2 9/1/9 10/4/10
f 2/12/2 6/8/6 12/8/12
f 4/4/4 10/4/10 11/6/11
f 15/6/15 19/6/19 20/8/20
f 10/4/10 14/4/14 15/6/15
f 11/6/11 15/6/15 16/8/16
f 9/1/9 13/1/13 14/4/14
f 19/6/19 23/6/23 24/8/24
f 14/4/14 13/1/13 17/1/17
f 13/12/13 16/8/16 20/8/20
f 14/4/14 18/4/18 19/6/19
f 23/6/23 27/6/27 28/8/28
f 17/1/17 21/1/21 22/4/22
f 17/12/17 20/8/20 24/8/24
f 18/4/18 22/4/22 23/6/23
f 26/4/26 25/1/25 29/1/29
f 22/4/22 21/1/21 25/1/25
f 21/12/21 24/8/24 28/8/28
f 22/4/22 26/4/26 27/6/27
f 31/6/31 35/6/35 36/8/36
f 25/12/25 28/8/28 32/8/32
f 26/4/26 30/4/30 31/6/31
f 27/6/27 31/6/31 32/8/32
f 34/13/34 33/14/33 36/8/36
f 30/4/30 29/1/29 33/1/33
f 29/12/29 32/8/32 36/8/36
f 30/4/30 34/4/34 35/6/35
f 39/2/39 40/4/40 38/1/38
f 43/5/43 44/6/44 40/4/40
f 41/7/41 42/8/42 44/6/44
f 37/9/37 38/12/38 42/8/42
f 37/10/37 41/7/41 43/5/43
f 48/8/48 47/6/47 44/6/44
f 45/12/45 49/12/49 52/8/52
f 46/4/46 45/1/45 38/1/38
f 38/12/38 45/12/45 48/8/48
f 47/6/47 46/4/46 40/4/40
f 56/8/56 55/6/55 51/6/51
f 51/6/51 50/4/50 46/4/46
f 52/8/52 51/6/51 47/6/47
f 50/4/50 49/1/49 45/1/45
f 60/8/60 59/6/59 55/6/55
f 54/4/54 53/1/53 49/1/49
f 49/12/49 53/12/53 56/8/56
f 55/6/55 54/4/54 50/4/50
f 64/8/64 63/6/63 59/6/59
f 58/4/58 57/1/57 53/1/53
f 53/12/53 57/12/57 60/8/60
f 59/6/59 58/4/58 54/4/54
f 62/4/62 66/4/66 65/1/65
f 62/4/62 61/1/61 57/1/57
f 57/12/57 61/12/61 64/8/64
f 63/6/63 62/4/62 58/4/58
f 36/8/36 35/6/35 67/6/67
f 61/12/61 65/12/65 68/8/68
f 67/6/67 66/4/66 62/4/62
f 68/8/68 67/6/67 63/6/63
f 66/4/66 34/4/34 33/1/33
f 65/12/65 33/12/33 36/8/36
f 35/6/35 34/4/34 66/4/66
