# Blender 4.5.0
# www.blender.org
mtllib chair.mtl
o Cube
v 3.000000 0.000000 -3.000000
v 3.000000 7.000000 -3.000000
v 3.000000 0.000000 -4.000000
v 3.000000 7.000000 -4.000000
v 4.000000 0.000000 -3.000000
v 4.000000 7.000000 -3.000000
v 4.000000 0.000000 -4.000000
v 4.000000 7.000000 -4.000000
v -3.000000 0.000000 -3.000000
v -3.000000 7.000000 -3.000000
v -3.000000 0.000000 -4.000000
v -3.000000 7.000000 -4.000000
v -4.000000 0.000000 -3.000000
v -4.000000 7.000000 -3.000000
v -4.000000 0.000000 -4.000000
v -4.000000 7.000000 -4.000000
v 3.000000 0.000000 3.000000
v 3.000000 7.000000 3.000000
v 3.000000 0.000000 4.000000
v 3.000000 7.000000 4.000000
v 4.000000 0.000000 3.000000
v 4.000000 7.000000 3.000000
v 4.000000 0.000000 4.000000
v 4.000000 7.000000 4.000000
v -3.000000 0.000000 3.000000
v -3.000000 7.000000 3.000000
v -3.000000 0.000000 4.000000
v -3.000000 7.000000 4.000000
v -4.000000 0.000000 3.000000
v -4.000000 7.000000 3.000000
v -4.000000 0.000000 4.000000
v -4.000000 7.000000 4.000000
vn -0.5774 -0.5774 0.5774
vn -0.5774 0.5774 0.5774
vn -0.5774 -0.5774 -0.5774
vn -0.5774 0.5774 -0.5774
vn 0.5774 -0.5774 0.5774
vn 0.5774 0.5774 0.5774
vn 0.5774 -0.5774 -0.5774
vn 0.5774 0.5774 -0.5774
vt 0.850410 0.327227
vt 0.850410 0.000000
vt 0.897157 0.000000
vt 0.897157 0.327227
vt 0.850410 0.654454
vt 0.897157 0.654454
vt 0.373974 0.917621
vt 0.373974 0.590394
vt 0.420720 0.590394
vt 0.420720 0.917621
vt 0.467467 0.590394
vt 0.467467 0.917621
vt 0.663424 0.637141
vt 0.616677 0.637141
vt 0.616677 0.590394
vt 0.663424 0.590394
vt 0.710170 0.590394
vt 0.710170 0.637141
s 1
usemtl Material.001
f 1/1/1 2/2/2 4/3/4 3/4/3
f 3/5/3 4/1/4 8/4/8 7/6/7
f 7/7/7 8/8/8 6/9/6 5/10/5
f 5/10/5 6/9/6 2/11/2 1/12/1
f 3/13/3 7/14/7 5/15/5 1/16/1
f 8/17/8 4/18/4 2/13/2 6/16/6
f 9/1/5 11/4/7 12/3/8 10/2/6
f 11/5/7 15/6/3 16/4/4 12/1/8
f 15/7/3 13/10/1 14/9/2 16/8/4
f 13/10/1 9/12/5 10/11/6 14/9/2
f 11/13/7 9/16/5 13/15/1 15/14/3
f 16/17/4 14/16/2 10/13/6 12/18/8
f 17/1/3 19/4/1 20/3/2 18/2/4
f 19/5/1 23/6/5 24/4/6 20/1/2
f 23/7/5 21/10/7 22/9/8 24/8/6
f 21/10/7 17/12/3 18/11/4 22/9/8
f 19/13/1 17/16/3 21/15/7 23/14/5
f 24/17/6 22/16/8 18/13/4 20/18/2
f 25/1/7 26/2/8 28/3/6 27/4/5
f 27/5/5 28/1/6 32/4/2 31/6/1
f 31/7/1 32/8/2 30/9/4 29/10/3
f 29/10/3 30/9/4 26/11/8 25/12/7
f 27/13/5 31/14/1 29/15/3 25/16/7
f 32/17/2 28/18/6 26/13/8 30/16/4
o Cube.001
v -4.000000 7.000000 4.000000
v -4.000000 8.000000 4.000000
v -4.000000 7.000000 -4.000000
v -4.000000 8.000000 -4.000000
v 4.000000 7.000000 4.000000
v 4.000000 8.000000 4.000000
v 4.000000 7.000000 -4.000000
v 4.000000 8.000000 -4.000000
vn -0.5774 -0.5774 0.5774
vn -0.5774 0.5774 0.5774
vn -0.5774 -0.5774 -0.5774
vn -0.5774 0.5774 -0.5774
vn 0.5774 -0.5774 0.5774
vn 0.5774 0.5774 0.5774
vn 0.5774 -0.5774 -0.5774
vn 0.5774 0.5774 -0.5774
vt 0.803664 0.841441
vt 0.756917 0.841441
vt 0.756917 0.467467
vt 0.803664 0.467467
vt 0.850410 0.373974
vt 0.803664 0.373974
vt 0.803664 -0.000000
vt 0.850410 -0.000000
vt 0.850410 0.747947
vt 0.803664 0.747947
vt 0.803664 0.373974
vt 0.850410 0.373974
vt 0.756917 0.856271
vt 0.710170 0.856271
vt 0.710170 0.482298
vt 0.756917 0.482298
vt 0.373974 0.000000
vt 0.373974 0.373974
vt 0.000000 0.373974
vt 0.000000 0.000000
vt 0.373974 0.373974
vt 0.373974 0.747948
vt 0.000000 0.747947
vt 0.000000 0.373974
s 1
usemtl Material.001
f 33/19/9 34/20/10 36/21/12 35/22/11
f 35/23/11 36/24/12 40/25/16 39/26/15
f 39/27/15 40/28/16 38/29/14 37/30/13
f 37/31/13 38/32/14 34/33/10 33/34/9
f 35/35/11 39/36/15 37/37/13 33/38/9
f 40/39/16 36/40/12 34/41/10 38/42/14
o Cube.002
v -4.000000 8.000000 -3.000000
v -4.000000 18.000000 -3.000000
v -4.000000 8.000000 -4.000000
v -4.000000 18.000000 -4.000000
v -3.000000 8.000000 -3.000000
v -3.000000 18.000000 -3.000000
v -3.000000 8.000000 -4.000000
v -3.000000 18.000000 -4.000000
v -3.500000 18.500000 -3.000000
v -3.500000 18.500000 -4.000000
v -3.000000 19.000000 -4.000000
v -3.000000 19.000000 -3.000000
v 0.000000 19.000000 -4.000000
v 0.000000 19.000000 -3.000000
v 0.000000 20.000000 -4.000000
v 0.000000 20.000000 -3.000000
v 4.000000 8.000000 -3.000000
v 4.000000 18.000000 -3.000000
v 4.000000 8.000000 -4.000000
v 4.000000 18.000000 -4.000000
v 3.000000 8.000000 -3.000000
v 3.000000 18.000000 -3.000000
v 3.000000 8.000000 -4.000000
v 3.000000 18.000000 -4.000000
v 3.500000 18.500000 -3.000000
v 3.500000 18.500000 -4.000000
v 3.000000 19.000000 -4.000000
v 3.000000 19.000000 -3.000000
vn -0.5774 -0.5774 0.5774
vn -0.7173 0.2971 0.6303
vn -0.5774 -0.5774 -0.5774
vn -0.7173 0.2971 -0.6303
vn 0.5774 -0.5774 0.5774
vn 0.4073 -0.2935 0.8649
vn 0.5774 -0.5774 -0.5774
vn 0.4073 -0.2935 -0.8649
vn -0.5000 0.5000 0.7071
vn -0.5000 0.5000 -0.7071
vn -0.3955 0.6399 -0.6589
vn -0.3955 0.6399 0.6589
vn 0.3100 -0.5882 -0.7470
vn 0.3100 -0.5882 0.7470
vn 0.3745 0.7106 -0.5956
vn 0.3745 0.7106 0.5956
vn 0.7173 0.2971 0.6303
vn 0.7173 0.2971 -0.6303
vn -0.4073 -0.2935 0.8649
vn -0.4073 -0.2935 -0.8649
vn 0.5000 0.5000 0.7071
vn 0.5000 0.5000 -0.7071
vn 0.3955 0.6399 -0.6589
vn 0.3955 0.6399 0.6589
vt 0.710170 0.482298
vt 0.710170 0.206098
vt 0.756917 0.206098
vt 0.756917 0.482298
vt 0.665071 0.590394
vt 0.542072 0.139399
vt 0.587172 0.127099
vt 0.710170 0.578094
vt 0.756917 0.467467
vt 0.756917 0.000000
vt 0.803664 0.000000
vt 0.803664 0.467467
vt 0.373974 0.578094
vt 0.496972 0.127099
vt 0.542072 0.139399
vt 0.419073 0.590394
vt 0.569930 0.637141
vt 0.523787 0.637141
vt 0.523787 0.590394
vt 0.569930 0.590394
vt 0.558472 0.110699
vt 0.574872 0.081999
vt 0.756917 0.140764
vt 0.756917 0.173431
vt 0.710170 0.173431
vt 0.710170 0.140764
vt 0.509272 0.081999
vt 0.373974 0.045100
vt 0.386274 -0.000000
vt 0.525672 0.110699
vt 0.616677 0.590394
vt 0.616677 0.637141
vt 0.569930 0.590394
vt 0.710170 0.000000
vt 0.514214 0.736311
vt 0.467467 0.736311
vt 0.467467 0.590394
vt 0.514214 0.590394
vt 0.697870 0.000000
vt 0.710170 0.045100
s 1
usemtl Material.001
f 41/43/17 42/44/18 44/45/20 43/46/19
f 43/47/19 44/48/20 48/49/24 47/50/23
f 47/51/23 48/52/24 46/53/22 45/54/21
f 45/55/21 46/56/22 42/57/18 41/58/17
f 43/59/19 47/60/23 45/61/21 41/62/17
f 48/49/24 44/48/20 50/63/26 51/64/27
f 51/65/27 50/66/26 49/67/25 52/68/28
f 52/69/28 46/56/22 54/70/30 56/71/32
f 44/45/20 42/44/18 49/67/25 50/66/26
f 42/57/18 46/56/22 52/69/28 49/72/25
f 54/73/30 53/74/29 55/59/31 56/75/32
f 51/65/27 52/68/28 56/76/32 55/52/31
f 46/77/22 48/78/24 53/79/29 54/80/30
f 48/49/24 51/64/27 55/81/31 53/82/29
f 57/43/21 59/46/23 60/45/34 58/44/33
f 59/47/23 63/50/19 64/49/36 60/48/34
f 63/51/19 61/54/17 62/53/35 64/52/36
f 61/55/17 57/58/21 58/57/33 62/56/35
f 59/59/23 57/62/21 61/61/17 63/60/19
f 64/49/36 67/64/39 66/63/38 60/48/34
f 67/65/39 68/68/40 65/67/37 66/66/38
f 68/69/40 56/71/32 54/70/30 62/56/35
f 60/45/34 66/66/38 65/67/37 58/44/33
f 58/57/33 65/72/37 68/69/40 62/56/35
f 67/65/39 55/52/31 56/76/32 68/68/40
f 62/77/35 54/80/30 53/79/29 64/78/36
f 64/49/36 53/82/29 55/81/31 67/64/39
o Cube.003
v -2.750000 8.000000 -3.200000
v -2.750000 19.000000 -3.200000
v -2.750000 8.000000 -3.800000
v -2.750000 19.000000 -3.800000
v -2.250000 8.000000 -3.200000
v -2.250000 19.000000 -3.200000
v -2.250000 8.000000 -3.800000
v -2.250000 19.000000 -3.800000
v -1.750000 8.000000 -3.200000
v -1.750000 19.000000 -3.200000
v -1.750000 8.000000 -3.800000
v -1.750000 19.000000 -3.800000
v -1.250000 8.000000 -3.200000
v -1.250000 19.000000 -3.200000
v -1.250000 8.000000 -3.800000
v -1.250000 19.000000 -3.800000
v -0.750000 8.000000 -3.200000
v -0.750000 19.000000 -3.200000
v -0.750000 8.000000 -3.800000
v -0.750000 19.000000 -3.800000
v -0.250000 8.000000 -3.200000
v -0.250000 19.000000 -3.200000
v -0.250000 8.000000 -3.800000
v -0.250000 19.000000 -3.800000
v 2.750000 8.000000 -3.200000
v 2.750000 19.000000 -3.200000
v 2.750000 8.000000 -3.800000
v 2.750000 19.000000 -3.800000
v 2.250000 8.000000 -3.200000
v 2.250000 19.000000 -3.200000
v 2.250000 8.000000 -3.800000
v 2.250000 19.000000 -3.800000
v 1.750000 8.000000 -3.200000
v 1.750000 19.000000 -3.200000
v 1.750000 8.000000 -3.800000
v 1.750000 19.000000 -3.800000
v 1.250000 8.000000 -3.200000
v 1.250000 19.000000 -3.200000
v 1.250000 8.000000 -3.800000
v 1.250000 19.000000 -3.800000
v 0.750000 8.000000 -3.200000
v 0.750000 19.000000 -3.200000
v 0.750000 8.000000 -3.800000
v 0.750000 19.000000 -3.800000
v 0.250000 8.000000 -3.200000
v 0.250000 19.000000 -3.200000
v 0.250000 8.000000 -3.800000
v 0.250000 19.000000 -3.800000
vn -0.5774 -0.5774 0.5774
vn -0.5774 0.5774 0.5774
vn -0.5774 -0.5774 -0.5774
vn -0.5774 0.5774 -0.5774
vn 0.5774 -0.5774 0.5774
vn 0.5774 0.5774 0.5774
vn 0.5774 -0.5774 -0.5774
vn 0.5774 0.5774 -0.5774
vt 0.897157 0.514214
vt 0.897157 0.000000
vt 0.925205 0.000000
vt 0.925205 0.514214
vt 0.953253 0.514214
vt 0.953253 0.000000
vt 0.976627 0.000000
vt 0.976627 0.514214
vt 0.953253 0.000000
vt 0.953253 0.514214
vt 1.000000 0.000000
vt 1.000000 0.514214
vt 0.547160 0.665189
vt 0.523787 0.665189
vt 0.523787 0.637141
vt 0.547160 0.637141
vt 0.570534 0.665189
vt 0.570534 0.637141
s 1
usemtl Material.001
f 69/83/41 70/84/42 72/85/44 71/86/43
f 71/87/43 72/88/44 76/89/48 75/90/47
f 75/86/47 76/85/48 74/91/46 73/92/45
f 73/90/45 74/89/46 70/93/42 69/94/41
f 71/95/43 75/96/47 73/97/45 69/98/41
f 76/99/48 72/95/44 70/98/42 74/100/46
f 77/83/41 78/84/42 80/85/44 79/86/43
f 79/87/43 80/88/44 84/89/48 83/90/47
f 83/86/47 84/85/48 82/91/46 81/92/45
f 81/90/45 82/89/46 78/93/42 77/94/41
f 79/95/43 83/96/47 81/97/45 77/98/41
f 84/99/48 80/95/44 78/98/42 82/100/46
f 85/83/41 86/84/42 88/85/44 87/86/43
f 87/87/43 88/88/44 92/89/48 91/90/47
f 91/86/47 92/85/48 90/91/46 89/92/45
f 89/90/45 90/89/46 86/93/42 85/94/41
f 87/95/43 91/96/47 89/97/45 85/98/41
f 92/99/48 88/95/44 86/98/42 90/100/46
f 93/83/45 95/86/47 96/85/48 94/84/46
f 95/87/47 99/90/43 100/89/44 96/88/48
f 99/86/43 97/92/41 98/91/42 100/85/44
f 97/90/41 93/94/45 94/93/46 98/89/42
f 95/95/47 93/98/45 97/97/41 99/96/43
f 100/99/44 98/100/42 94/98/46 96/95/48
f 101/83/45 103/86/47 104/85/48 102/84/46
f 103/87/47 107/90/43 108/89/44 104/88/48
f 107/86/43 105/92/41 106/91/42 108/85/44
f 105/90/41 101/94/45 102/93/46 106/89/42
f 103/95/47 101/98/45 105/97/41 107/96/43
f 108/99/44 106/100/42 102/98/46 104/95/48
f 109/83/45 111/86/47 112/85/48 110/84/46
f 111/87/47 115/90/43 116/89/44 112/88/48
f 115/86/43 113/92/41 114/91/42 116/85/44
f 113/90/41 109/94/45 110/93/46 114/89/42
f 111/95/47 109/98/45 113/97/41 115/96/43
f 116/99/44 114/100/42 110/98/46 112/95/48
o Cube.004
v -2.080000 7.500000 1.920000
v -2.080000 8.500000 1.920000
v -2.080000 7.500000 -1.920000
v -2.080000 8.500001 -1.920000
v 2.080000 7.500000 1.920000
v 2.080000 8.500001 1.920000
v 2.080000 7.500000 -1.920000
v 2.080000 8.500001 -1.920000
v -2.535803 7.390432 -0.000000
v -2.535802 8.000000 2.340741
v -2.535803 8.609570 -0.000000
v -2.535803 8.000001 -2.340741
v 0.000000 7.390433 -2.340741
v 0.000000 8.609570 -2.340741
v 2.535802 8.000001 -2.340741
v 2.535803 7.390433 0.000000
v 2.535803 8.609570 0.000000
v 2.535803 8.000001 2.340741
v -0.000000 7.390433 2.340741
v -0.000000 8.609570 2.340741
v -3.492345 8.000001 -0.000000
v 0.000000 8.000001 -3.223704
v 3.492345 8.000001 -0.000000
v -0.000000 8.000001 3.223704
v 0.000000 7.160495 -0.000000
v -0.000000 8.839507 0.000000
vn -0.2916 -0.9021 0.3182
vn -0.2917 0.9021 0.3182
vn -0.2916 -0.9021 -0.3182
vn -0.2916 0.9021 -0.3182
vn 0.2916 -0.9021 0.3182
vn 0.2916 0.9021 0.3182
vn 0.2916 -0.9021 -0.3182
vn 0.2916 0.9021 -0.3182
vn -0.3720 -0.9282 -0.0000
vn -0.6968 -0.0000 0.7172
vn -0.3720 0.9282 -0.0000
vn -0.6968 -0.0000 -0.7172
vn -0.0000 -0.9211 -0.3894
vn -0.0000 0.9211 -0.3894
vn 0.6968 -0.0000 -0.7172
vn 0.3720 -0.9282 -0.0000
vn 0.3720 0.9282 -0.0000
vn 0.6968 -0.0000 0.7172
vn -0.0000 -0.9211 0.3894
vn -0.0000 0.9211 0.3894
vn -1.0000 -0.0000 -0.0000
vn -0.0000 -0.0000 -1.0000
vn 1.0000 -0.0000 -0.0000
vn -0.0000 -0.0000 1.0000
vn -0.0000 -1.0000 -0.0000
vn -0.0000 1.0000 -0.0000
vt 0.375000 0.000000
vt 0.500000 0.000000
vt 0.500000 0.125000
vt 0.375000 0.125000
vt 0.625000 0.000000
vt 0.625000 0.125000
vt 0.625000 0.250000
vt 0.500000 0.250000
vt 0.375000 0.250000
vt 0.500000 0.375000
vt 0.375000 0.375000
vt 0.625000 0.375000
vt 0.625000 0.500000
vt 0.500000 0.500000
vt 0.375000 0.500000
vt 0.500000 0.625000
vt 0.375000 0.625000
vt 0.625000 0.625000
vt 0.625000 0.750000
vt 0.500000 0.750000
vt 0.375000 0.750000
vt 0.500000 0.875000
vt 0.375000 0.875000
vt 0.625000 0.875000
vt 0.625000 1.000000
vt 0.500000 1.000000
vt 0.375000 1.000000
vt 0.125000 0.500000
vt 0.250000 0.500000
vt 0.250000 0.625000
vt 0.125000 0.625000
vt 0.250000 0.750000
vt 0.125000 0.750000
vt 0.750000 0.500000
vt 0.750000 0.625000
vt 0.875000 0.500000
vt 0.875000 0.625000
vt 0.875000 0.750000
vt 0.750000 0.750000
s 1
usemtl Material.002
f 117/101/49 126/102/58 137/103/69 125/104/57
f 126/102/58 118/105/50 127/106/59 137/103/69
f 137/103/69 127/106/59 120/107/52 128/108/60
f 125/104/57 137/103/69 128/108/60 119/109/51
f 119/109/51 128/108/60 138/110/70 129/111/61
f 128/108/60 120/107/52 130/112/62 138/110/70
f 138/110/70 130/112/62 124/113/56 131/114/63
f 129/111/61 138/110/70 131/114/63 123/115/55
f 123/115/55 131/114/63 139/116/71 132/117/64
f 131/114/63 124/113/56 133/118/65 139/116/71
f 139/116/71 133/118/65 122/119/54 134/120/66
f 132/117/64 139/116/71 134/120/66 121/121/53
f 121/121/53 134/120/66 140/122/72 135/123/67
f 134/120/66 122/119/54 136/124/68 140/122/72
f 140/122/72 136/124/68 118/125/50 126/126/58
f 135/123/67 140/122/72 126/126/58 117/127/49
f 119/128/51 129/129/61 141/130/73 125/131/57
f 129/129/61 123/115/55 132/117/64 141/130/73
f 141/130/73 132/117/64 121/121/53 135/132/67
f 125/131/57 141/130/73 135/132/67 117/133/49
f 124/113/56 130/134/62 142/135/74 133/118/65
f 130/134/62 120/136/52 127/137/59 142/135/74
f 142/135/74 127/137/59 118/138/50 136/139/68
f 133/118/65 142/135/74 136/139/68 122/119/54
