# Blender 4.4.3
# www.blender.org
mtllib slash_curve.mtl
o Circle
v 0.000000 0.000000 -1.000000
v -0.195090 0.000000 -0.980785
v -0.382683 0.000000 -0.923880
v -0.555570 0.000000 -0.831470
v -0.707107 0.000000 -0.707107
v -0.831470 0.000000 -0.555570
v -0.923880 0.000000 -0.382683
v -0.980785 0.000000 -0.195090
v -1.000000 0.000000 0.000000
v -0.980785 0.000000 0.195090
v -0.923880 0.000000 0.382683
v 0.923880 0.000000 0.382683
v 0.980785 0.000000 0.195090
v 1.000000 0.000000 0.000000
v 0.980785 0.000000 -0.195090
v 0.923880 0.000000 -0.382683
v 0.831470 0.000000 -0.555570
v 0.707107 0.000000 -0.707107
v 0.555570 0.000000 -0.831470
v 0.382683 0.000000 -0.923880
v 0.195090 0.000000 -0.980785
v -0.000000 0.000000 -0.800000
v -0.156072 0.000000 -0.784628
v -0.306147 0.000000 -0.739104
v -0.444456 0.000000 -0.665176
v -0.565685 0.000000 -0.565685
v -0.665176 0.000000 -0.444456
v -0.739104 0.000000 -0.306147
v -0.784628 0.000000 -0.156072
v -0.800000 0.000000 -0.000000
v -0.784628 0.000000 0.156072
v -0.739104 0.000000 0.306147
v 0.739104 0.000000 0.306147
v 0.784628 0.000000 0.156072
v 0.800000 0.000000 -0.000000
v 0.784628 0.000000 -0.156072
v 0.739104 0.000000 -0.306147
v 0.665176 0.000000 -0.444456
v 0.565685 0.000000 -0.565685
v 0.444456 0.000000 -0.665176
v 0.306147 0.000000 -0.739104
v 0.156072 0.000000 -0.784628
v -0.000000 0.000000 -0.640000
v -0.124858 0.000000 -0.627703
v -0.244917 0.000000 -0.591283
v -0.355565 0.000000 -0.532141
v -0.452548 0.000000 -0.452548
v -0.532141 0.000000 -0.355565
v -0.591283 0.000000 -0.244917
v -0.627703 0.000000 -0.124858
v -0.640000 0.000000 -0.000000
v -0.627703 0.000000 0.124858
v -0.591283 0.000000 0.244917
v 0.591283 0.000000 0.244917
v 0.627703 0.000000 0.124858
v 0.640000 0.000000 -0.000000
v 0.627703 0.000000 -0.124858
v 0.591283 0.000000 -0.244917
v 0.532141 0.000000 -0.355565
v 0.452548 0.000000 -0.452548
v 0.355565 0.000000 -0.532141
v 0.244917 0.000000 -0.591283
v 0.124858 0.000000 -0.627703
vn -0.0000 1.0000 -0.0000
vt 0.850000 1.000000
vt 0.850000 0.500000
vt 0.900000 0.500000
vt 0.900000 1.000000
vt 0.800000 1.000000
vt 0.800000 0.500000
vt 0.750000 1.000000
vt 0.750000 0.500000
vt 0.450000 1.000000
vt 0.450000 0.500000
vt 0.500000 0.500000
vt 0.500000 1.000000
vt 0.700000 1.000000
vt 0.700000 0.500000
vt 0.400000 1.000000
vt 0.400000 0.500000
vt 0.650000 1.000000
vt 0.650000 0.500000
vt 0.354000 1.000000
vt 0.354000 0.500000
vt 0.600000 1.000000
vt 0.600000 0.500000
vt 0.300000 1.000000
vt 0.300000 0.500000
vt 0.550000 1.000000
vt 0.550000 0.500000
vt 0.250000 1.000000
vt 0.250000 0.500000
vt 0.200000 1.000000
vt 0.200000 0.500000
vt 0.150000 1.000000
vt 0.150000 0.500000
vt 0.100000 1.000000
vt 0.100000 0.500000
vt 0.050000 1.000000
vt 0.050000 0.500000
vt 0.950000 1.000000
vt 0.950000 0.500000
vt 1.000000 0.500000
vt 1.000000 1.000000
vt -0.000000 1.000000
vt 0.000000 0.500000
vt 0.150000 0.000000
vt 0.200000 0.000000
vt 0.100000 0.000000
vt 0.050000 0.000000
vt 0.950000 0.000000
vt 1.000000 0.000000
vt -0.000000 0.000000
vt 0.900000 0.000000
vt 0.850000 0.000000
vt 0.800000 0.000000
vt 0.750000 0.000000
vt 0.450000 0.000000
vt 0.500000 0.000000
vt 0.700000 0.000000
vt 0.400000 0.000000
vt 0.650000 0.000000
vt 0.354000 0.000000
vt 0.600000 0.000000
vt 0.300000 0.000000
vt 0.550000 0.000000
vt 0.250000 0.000000
s 0
f 15/1/1 36/2/1 35/3/1 14/4/1
f 16/5/1 37/6/1 36/2/1 15/1/1
f 17/7/1 38/8/1 37/6/1 16/5/1
f 2/9/1 23/10/1 22/11/1 1/12/1
f 18/13/1 39/14/1 38/8/1 17/7/1
f 3/15/1 24/16/1 23/10/1 2/9/1
f 19/17/1 40/18/1 39/14/1 18/13/1
f 4/19/1 25/20/1 24/16/1 3/15/1
f 20/21/1 41/22/1 40/18/1 19/17/1
f 5/23/1 26/24/1 25/20/1 4/19/1
f 21/25/1 42/26/1 41/22/1 20/21/1
f 6/27/1 27/28/1 26/24/1 5/23/1
f 1/12/1 22/11/1 42/26/1 21/25/1
f 7/29/1 28/30/1 27/28/1 6/27/1
f 8/31/1 29/32/1 28/30/1 7/29/1
f 9/33/1 30/34/1 29/32/1 8/31/1
f 10/35/1 31/36/1 30/34/1 9/33/1
f 13/37/1 34/38/1 33/39/1 12/40/1
f 11/41/1 32/42/1 31/36/1 10/35/1
f 14/4/1 35/3/1 34/38/1 13/37/1
f 29/32/1 50/43/1 49/44/1 28/30/1
f 30/34/1 51/45/1 50/43/1 29/32/1
f 31/36/1 52/46/1 51/45/1 30/34/1
f 34/38/1 55/47/1 54/48/1 33/39/1
f 32/42/1 53/49/1 52/46/1 31/36/1
f 35/3/1 56/50/1 55/47/1 34/38/1
f 36/2/1 57/51/1 56/50/1 35/3/1
f 37/6/1 58/52/1 57/51/1 36/2/1
f 38/8/1 59/53/1 58/52/1 37/6/1
f 23/10/1 44/54/1 43/55/1 22/11/1
f 39/14/1 60/56/1 59/53/1 38/8/1
f 24/16/1 45/57/1 44/54/1 23/10/1
f 40/18/1 61/58/1 60/56/1 39/14/1
f 25/20/1 46/59/1 45/57/1 24/16/1
f 41/22/1 62/60/1 61/58/1 40/18/1
f 26/24/1 47/61/1 46/59/1 25/20/1
f 42/26/1 63/62/1 62/60/1 41/22/1
f 27/28/1 48/63/1 47/61/1 26/24/1
f 22/11/1 43/55/1 63/62/1 42/26/1
f 28/30/1 49/44/1 48/63/1 27/28/1
