# Blender 4.4.3
# www.blender.org
mtllib spiral_stairs.mtl
o Cube.001
v -2.000000 -0.125000 3.000000
v -2.000000 0.125000 3.000000
v -2.000000 -0.125000 1.800000
v -2.000000 0.125000 1.800000
v 2.000000 -0.125000 3.000000
v 2.000000 0.125000 3.000000
v 2.000000 -0.125000 1.800000
v 2.000000 0.125000 1.800000
v -2.000000 0.125000 2.400000
v -2.000000 0.375000 2.400000
v -2.000000 0.125000 1.200000
v -2.000000 0.375000 1.200000
v 2.000000 0.125000 2.400000
v 2.000000 0.375000 2.400000
v 2.000000 0.125000 1.200000
v 2.000000 0.375000 1.200000
v -2.000000 0.375000 1.800000
v -2.000000 0.625000 1.800000
v -2.000000 0.375000 0.600000
v -2.000000 0.625000 0.600000
v 2.000000 0.375000 1.800000
v 2.000000 0.625000 1.800000
v 2.000000 0.375000 0.600000
v 2.000000 0.625000 0.600000
v -2.000000 0.625000 1.200000
v -2.000000 0.875000 1.200000
v -2.000000 0.625000 0.000000
v -2.000000 0.875000 0.000000
v 2.000000 0.625000 1.200000
v 2.000000 0.875000 1.200000
v 2.000000 0.625000 0.000000
v 2.000000 0.875000 0.000000
v -2.000000 0.875000 0.600000
v -2.000000 1.125000 0.600000
v -2.000000 0.875000 -0.600000
v -2.000000 1.125000 -0.600000
v 2.000000 0.875000 0.600000
v 2.000000 1.125000 0.600000
v 2.000000 0.875000 -0.600000
v 2.000000 1.125000 -0.600000
v -2.000000 1.125000 0.000000
v -2.000000 1.375000 0.000000
v -2.000000 1.125000 -1.200000
v -2.000000 1.375000 -1.200000
v 2.000000 1.125000 0.000000
v 2.000000 1.375000 0.000000
v 2.000000 1.125000 -1.200000
v 2.000000 1.375000 -1.200000
v -2.000000 1.375000 -0.600000
v -2.000000 1.625000 -0.600000
v -2.000000 1.375000 -1.800000
v -2.000000 1.625000 -1.800000
v 2.000000 1.375000 -0.600000
v 2.000000 1.625000 -0.600000
v 2.000000 1.375000 -1.800000
v 2.000000 1.625000 -1.800000
v -2.000000 1.625000 -1.200000
v -2.000000 1.875000 -1.200000
v -2.000000 1.625000 -2.400000
v -2.000000 1.875000 -2.400000
v 2.000000 1.625000 -1.200000
v 2.000000 1.875000 -1.200000
v 2.000000 1.625000 -2.400000
v 2.000000 1.875000 -2.400000
v -2.000000 1.875000 -1.800000
v -2.000000 2.125000 -1.800000
v -2.000000 1.875000 -3.000000
v -2.000000 2.125000 -3.000000
v 2.000000 1.875000 -1.800000
v 2.000000 2.125000 -1.800000
v 1.480000 1.875000 -5.000000
v 1.480000 2.125000 -5.000000
vn -1.0000 -0.0000 -0.0000
vn -0.0000 -0.0000 -1.0000
vn 1.0000 -0.0000 -0.0000
vn -0.0000 -0.0000 1.0000
vn -0.0000 -1.0000 -0.0000
vn -0.0000 1.0000 -0.0000
vn -0.4983 -0.0000 -0.8670
vn 0.9871 -0.0000 -0.1604
vt 0.625000 0.000000
vt 0.375000 0.250000
vt 0.375000 0.000000
vt 0.625000 0.250000
vt 0.375000 0.500000
vt 0.625000 0.500000
vt 0.375000 0.750000
vt 0.625000 0.750000
vt 0.375000 1.000000
vt 0.125000 0.750000
vt 0.125000 0.500000
vt 0.875000 0.500000
vt 0.625000 1.000000
vt 0.875000 0.750000
s 0
usemtl Material.001
f 2/1/1 3/2/1 1/3/1
f 4/4/2 7/5/2 3/2/2
f 8/6/3 5/7/3 7/5/3
f 6/8/4 1/9/4 5/7/4
f 7/5/5 1/10/5 3/11/5
f 4/12/6 6/8/6 8/6/6
f 10/1/1 11/2/1 9/3/1
f 12/4/2 15/5/2 11/2/2
f 16/6/3 13/7/3 15/5/3
f 14/8/4 9/9/4 13/7/4
f 15/5/5 9/10/5 11/11/5
f 12/12/6 14/8/6 16/6/6
f 18/1/1 19/2/1 17/3/1
f 20/4/2 23/5/2 19/2/2
f 24/6/3 21/7/3 23/5/3
f 22/8/4 17/9/4 21/7/4
f 23/5/5 17/10/5 19/11/5
f 20/12/6 22/8/6 24/6/6
f 26/1/1 27/2/1 25/3/1
f 28/4/2 31/5/2 27/2/2
f 32/6/3 29/7/3 31/5/3
f 30/8/4 25/9/4 29/7/4
f 31/5/5 25/10/5 27/11/5
f 28/12/6 30/8/6 32/6/6
f 34/1/1 35/2/1 33/3/1
f 36/4/2 39/5/2 35/2/2
f 40/6/3 37/7/3 39/5/3
f 38/8/4 33/9/4 37/7/4
f 39/5/5 33/10/5 35/11/5
f 36/12/6 38/8/6 40/6/6
f 42/1/1 43/2/1 41/3/1
f 44/4/2 47/5/2 43/2/2
f 48/6/3 45/7/3 47/5/3
f 46/8/4 41/9/4 45/7/4
f 47/5/5 41/10/5 43/11/5
f 44/12/6 46/8/6 48/6/6
f 50/1/1 51/2/1 49/3/1
f 52/4/2 55/5/2 51/2/2
f 56/6/3 53/7/3 55/5/3
f 54/8/4 49/9/4 53/7/4
f 55/5/5 49/10/5 51/11/5
f 52/12/6 54/8/6 56/6/6
f 58/1/1 59/2/1 57/3/1
f 60/4/2 63/5/2 59/2/2
f 64/6/3 61/7/3 63/5/3
f 62/8/4 57/9/4 61/7/4
f 63/5/5 57/10/5 59/11/5
f 60/12/6 62/8/6 64/6/6
f 66/1/1 67/2/1 65/3/1
f 68/4/7 71/5/7 67/2/7
f 72/6/8 69/7/8 71/5/8
f 70/8/4 65/9/4 69/7/4
f 67/11/5 69/7/5 65/10/5
f 68/12/6 70/8/6 72/6/6
f 2/1/1 4/4/1 3/2/1
f 4/4/2 8/6/2 7/5/2
f 8/6/3 6/8/3 5/7/3
f 6/8/4 2/13/4 1/9/4
f 7/5/5 5/7/5 1/10/5
f 4/12/6 2/14/6 6/8/6
f 10/1/1 12/4/1 11/2/1
f 12/4/2 16/6/2 15/5/2
f 16/6/3 14/8/3 13/7/3
f 14/8/4 10/13/4 9/9/4
f 15/5/5 13/7/5 9/10/5
f 12/12/6 10/14/6 14/8/6
f 18/1/1 20/4/1 19/2/1
f 20/4/2 24/6/2 23/5/2
f 24/6/3 22/8/3 21/7/3
f 22/8/4 18/13/4 17/9/4
f 23/5/5 21/7/5 17/10/5
f 20/12/6 18/14/6 22/8/6
f 26/1/1 28/4/1 27/2/1
f 28/4/2 32/6/2 31/5/2
f 32/6/3 30/8/3 29/7/3
f 30/8/4 26/13/4 25/9/4
f 31/5/5 29/7/5 25/10/5
f 28/12/6 26/14/6 30/8/6
f 34/1/1 36/4/1 35/2/1
f 36/4/2 40/6/2 39/5/2
f 40/6/3 38/8/3 37/7/3
f 38/8/4 34/13/4 33/9/4
f 39/5/5 37/7/5 33/10/5
f 36/12/6 34/14/6 38/8/6
f 42/1/1 44/4/1 43/2/1
f 44/4/2 48/6/2 47/5/2
f 48/6/3 46/8/3 45/7/3
f 46/8/4 42/13/4 41/9/4
f 47/5/5 45/7/5 41/10/5
f 44/12/6 42/14/6 46/8/6
f 50/1/1 52/4/1 51/2/1
f 52/4/2 56/6/2 55/5/2
f 56/6/3 54/8/3 53/7/3
f 54/8/4 50/13/4 49/9/4
f 55/5/5 53/7/5 49/10/5
f 52/12/6 50/14/6 54/8/6
f 58/1/1 60/4/1 59/2/1
f 60/4/2 64/6/2 63/5/2
f 64/6/3 62/8/3 61/7/3
f 62/8/4 58/13/4 57/9/4
f 63/5/5 61/7/5 57/10/5
f 60/12/6 58/14/6 62/8/6
f 66/1/1 68/4/1 67/2/1
f 68/4/7 72/6/7 71/5/7
f 72/6/8 70/8/8 69/7/8
f 70/8/4 66/13/4 65/9/4
f 67/11/5 71/5/5 69/7/5
f 68/12/6 66/14/6 70/8/6
o Cube
v 2.000000 -0.125000 3.000000
v 2.000000 0.125000 3.000000
v 2.000000 1.875000 -2.400000
v 2.000000 2.125000 -2.400000
v 2.400000 -0.125000 3.000000
v 2.400000 0.125000 3.000000
v 2.400000 1.875000 -2.400000
v 2.400000 2.125000 -2.400000
v 2.000000 0.875000 3.000000
v 2.000000 2.875000 -2.400000
v 2.400000 2.875000 -2.400000
v 2.400000 0.875000 3.000000
v 2.000000 1.125000 -2.400000
v 2.000000 -0.875000 3.000000
v 2.400000 1.125000 -2.400000
v 2.400000 -0.875000 3.000000
v 1.480000 2.125000 -5.006723
v 1.480000 1.875000 -5.006723
v 1.800000 1.875000 -5.206723
v 1.800000 2.125000 -5.206723
v 1.480000 2.875000 -5.006723
v 1.800000 2.875000 -5.206723
v 1.800000 1.125000 -5.206723
v 1.480000 1.125000 -5.006723
vn -1.0000 -0.0000 -0.0000
vn -0.9807 -0.0000 0.1956
vn 1.0000 -0.0000 -0.0000
vn -0.0000 -0.0000 1.0000
vn -0.0000 0.9377 0.3473
vn -0.0000 -0.9377 -0.3473
vn -0.0000 1.0000 -0.0000
vn -0.5300 -0.0000 -0.8480
vn 0.9779 -0.0000 -0.2090
vn -0.0000 -1.0000 -0.0000
vt 0.625000 0.000000
vt 0.375000 0.250000
vt 0.375000 0.000000
vt 0.625000 0.250000
vt 0.375000 0.500000
vt 0.625000 0.750000
vt 0.375000 0.750000
vt 0.375000 1.000000
vt 0.875000 0.500000
vt 0.625000 0.500000
vt 0.625000 1.000000
vt 0.125000 0.750000
vt 0.125000 0.500000
vt 0.875000 0.750000
s 0
usemtl Material.002
f 74/15/9 75/16/9 73/17/9
f 82/18/10 89/18/10 76/18/10
f 79/19/11 78/20/11 77/21/11
f 78/20/12 73/22/12 77/21/12
f 77/21/11 87/19/11 79/19/11
f 75/16/10 96/16/10 85/16/10
f 82/23/13 84/20/13 83/24/13
f 80/24/11 84/20/11 78/20/11
f 76/18/9 81/15/9 82/18/9
f 78/20/12 81/25/12 74/25/12
f 87/19/14 86/26/14 85/27/14
f 73/22/12 88/21/12 77/21/12
f 83/24/15 93/23/15 82/23/15
f 73/17/9 85/16/9 86/17/9
f 89/18/16 91/19/16 90/16/16
f 89/18/16 94/24/16 92/24/16
f 91/19/16 96/16/16 90/16/16
f 87/19/17 91/19/17 79/19/17
f 76/18/10 90/16/10 75/16/10
f 87/19/18 96/27/18 95/19/18
f 80/24/17 94/24/17 83/24/17
f 79/19/17 92/24/17 80/24/17
f 74/15/9 76/18/9 75/16/9
f 82/18/10 93/18/10 89/18/10
f 79/19/11 80/24/11 78/20/11
f 78/20/12 74/25/12 73/22/12
f 77/21/11 88/21/11 87/19/11
f 75/16/10 90/16/10 96/16/10
f 82/23/13 81/28/13 84/20/13
f 80/24/11 83/24/11 84/20/11
f 76/18/9 74/15/9 81/15/9
f 78/20/12 84/20/12 81/25/12
f 87/19/14 88/21/14 86/26/14
f 73/22/12 86/22/12 88/21/12
f 83/24/15 94/24/15 93/23/15
f 73/17/9 75/16/9 85/16/9
f 89/18/16 92/24/16 91/19/16
f 89/18/16 93/18/16 94/24/16
f 91/19/16 95/19/16 96/16/16
f 87/19/17 95/19/17 91/19/17
f 76/18/10 89/18/10 90/16/10
f 87/19/18 85/27/18 96/27/18
f 80/24/17 92/24/17 94/24/17
f 79/19/17 91/19/17 92/24/17
o 
v 0.000000 0.000000 0.000000
