# Blender 4.4.3
# www.blender.org
mtllib sword.mtl
o Cylinder
v 0.000000 -0.900000 -0.200000
v 0.000000 0.500000 -0.200000
v 0.141421 -0.900000 -0.141421
v 0.141421 0.500000 -0.141421
v 0.200000 -0.900000 0.000000
v 0.200000 0.500000 0.000000
v 0.141421 -0.900000 0.141421
v 0.141421 0.500000 0.141421
v 0.000000 -0.900000 0.200000
v 0.000000 0.500000 0.200000
v -0.141421 -0.900000 0.141421
v -0.141421 0.500000 0.141421
v -0.200000 -0.900000 0.000000
v -0.200000 0.500000 0.000000
v -0.141421 -0.900000 -0.141421
v -0.141421 0.500000 -0.141421
vn -0.0000 -0.6303 -0.7764
vn -0.0000 0.6303 -0.7764
vn 0.5490 -0.6303 -0.5490
vn 0.5490 0.6303 -0.5490
vn 0.7764 -0.6303 -0.0000
vn 0.7764 0.6303 -0.0000
vn 0.5490 -0.6303 0.5490
vn 0.5490 0.6303 0.5490
vn -0.0000 -0.6303 0.7764
vn -0.0000 0.6303 0.7764
vn -0.5490 -0.6303 0.5490
vn -0.5490 0.6303 0.5490
vn -0.7764 -0.6303 -0.0000
vn -0.7764 0.6303 -0.0000
vn -0.5490 -0.6303 -0.5490
vn -0.5490 0.6303 -0.5490
vt 1.000000 1.000000
vt 0.875000 0.500000
vt 1.000000 0.500000
vt 0.875000 1.000000
vt 0.750000 0.500000
vt 0.750000 1.000000
vt 0.625000 0.500000
vt 0.625000 1.000000
vt 0.500000 0.500000
vt 0.500000 1.000000
vt 0.375000 0.500000
vt 0.375000 1.000000
vt 0.250000 0.500000
vt 0.010000 0.250000
vt 0.250000 0.010000
vt 0.490000 0.250000
vt 0.250000 1.000000
vt 0.125000 0.500000
vt 0.125000 1.000000
vt 0.000000 0.500000
vt 0.919706 0.080294
vt 0.580294 0.080294
vt 0.580294 0.419706
vt 0.419706 0.419706
vt 0.250000 0.490000
vt 0.080294 0.419706
vt 0.080294 0.080294
vt 0.419706 0.080294
vt 0.000000 1.000000
vt 0.750000 0.490000
vt 0.919706 0.419706
vt 0.990000 0.250000
vt 0.750000 0.010000
vt 0.510000 0.250000
s 1
usemtl Material.001
f 2/1/2 3/2/3 1/3/1
f 4/4/4 5/5/5 3/2/3
f 6/6/6 7/7/7 5/5/5
f 8/8/8 9/9/9 7/7/7
f 10/10/10 11/11/11 9/9/9
f 12/12/12 13/13/13 11/11/11
f 14/14/14 10/15/10 6/16/6
f 14/17/14 15/18/15 13/13/13
f 16/19/16 1/20/1 15/18/15
f 7/21/7 11/22/11 15/23/15
f 2/1/2 4/4/4 3/2/3
f 4/4/4 6/6/6 5/5/5
f 6/6/6 8/8/8 7/7/7
f 8/8/8 10/10/10 9/9/9
f 10/10/10 12/12/12 11/11/11
f 12/12/12 14/17/14 13/13/13
f 6/16/6 4/24/4 2/25/2
f 2/25/2 16/26/16 14/14/14
f 14/14/14 12/27/12 10/15/10
f 10/15/10 8/28/8 6/16/6
f 6/16/6 2/25/2 14/14/14
f 14/17/14 16/19/16 15/18/15
f 16/19/16 2/29/2 1/20/1
f 15/23/15 1/30/1 3/31/3
f 3/31/3 5/32/5 7/21/7
f 7/21/7 9/33/9 11/22/11
f 11/22/11 13/34/13 15/23/15
f 15/23/15 3/31/3 7/21/7
o Cube.002
v -0.300000 0.550000 0.057600
v -0.300000 8.350000 0.057600
v -0.300000 0.550000 -0.057600
v -0.300000 8.350000 -0.057600
v 0.000000 0.550000 0.115200
v 0.000000 8.350000 0.115200
v 0.000000 0.550000 -0.115200
v 0.000000 8.350000 -0.115200
v -0.300000 8.571992 0.000000
v -0.300000 8.571992 0.000000
v 0.000000 8.871992 0.000000
v 0.000000 8.871992 0.000000
v 0.300000 0.550000 0.057600
v 0.300000 8.350000 0.057600
v 0.300000 0.550000 -0.057600
v 0.300000 8.350000 -0.057600
v 0.300000 8.571992 0.000000
v 0.300000 8.571992 0.000000
vn -0.6235 -0.5880 0.5152
vn -0.7458 0.0856 0.6607
vn -0.6236 -0.5880 -0.5152
vn -0.7458 0.0856 -0.6607
vn 0.3547 -0.6237 0.6966
vn 0.4356 0.1028 0.8943
vn 0.3547 -0.6236 -0.6966
vn 0.4356 0.1028 -0.8943
vn -0.2215 0.8343 0.5049
vn -0.1079 0.8505 -0.5147
vn 0.0819 0.9531 -0.2912
vn -0.0000 0.9564 0.2922
vn 0.6235 -0.5880 0.5152
vn 0.7458 0.0856 0.6607
vn 0.6236 -0.5880 -0.5152
vn 0.7458 0.0856 -0.6607
vn 0.2215 0.8343 0.5049
vn 0.1079 0.8505 -0.5147
vt 0.625000 0.000000
vt 0.375000 0.250000
vt 0.375000 0.000000
vt 0.625000 0.250000
vt 0.375000 0.500000
vt 0.625000 0.500000
vt 0.375000 0.750000
vt 0.625000 0.750000
vt 0.375000 1.000000
vt 0.125000 0.750000
vt 0.125000 0.500000
vt 0.875000 0.750000
vt 0.625000 1.000000
vt 0.875000 0.500000
s 1
usemtl Material.002
f 18/35/18 19/36/19 17/37/17
f 20/38/20 23/39/23 19/36/19
f 24/40/24 21/41/21 23/39/23
f 22/42/22 17/43/17 21/41/21
f 23/39/23 17/44/17 19/45/19
f 22/42/22 27/40/27 28/42/28
f 27/40/27 25/46/25 28/42/28
f 20/38/20 25/35/25 26/38/26
f 22/42/22 25/47/25 18/47/18
f 24/40/24 26/38/26 27/40/27
f 31/36/31 30/35/30 29/37/29
f 23/39/23 32/38/32 31/36/31
f 29/43/29 22/42/22 21/41/21
f 29/44/29 23/39/23 31/45/31
f 27/40/27 33/46/33 34/48/34
f 32/38/32 33/35/33 30/35/30
f 33/47/33 22/42/22 30/47/30
f 24/40/24 34/38/34 32/38/32
f 18/35/18 20/38/20 19/36/19
f 20/38/20 24/40/24 23/39/23
f 24/40/24 22/42/22 21/41/21
f 22/42/22 18/47/18 17/43/17
f 23/39/23 21/41/21 17/44/17
f 22/42/22 24/40/24 27/40/27
f 27/40/27 26/48/26 25/46/25
f 20/38/20 18/35/18 25/35/25
f 22/42/22 28/42/28 25/47/25
f 24/40/24 20/38/20 26/38/26
f 31/36/31 32/38/32 30/35/30
f 23/39/23 24/40/24 32/38/32
f 29/43/29 30/47/30 22/42/22
f 29/44/29 21/41/21 23/39/23
f 27/40/27 28/42/28 33/46/33
f 32/38/32 34/38/34 33/35/33
f 33/47/33 28/42/28 22/42/22
f 24/40/24 27/40/27 34/38/34
o Sphere
v 0.150000 -0.787868 -0.150000
v 0.212132 -1.000000 -0.212132
v 0.150000 -1.212132 -0.150000
v 0.212132 -0.787868 0.000000
v 0.300000 -1.000000 0.000000
v 0.212132 -1.212132 0.000000
v 0.150000 -0.787868 0.150000
v 0.212132 -1.000000 0.212132
v 0.150000 -1.212132 0.150000
v 0.000000 -0.787868 0.212132
v 0.000000 -1.000000 0.300000
v 0.000000 -1.212132 0.212132
v -0.150000 -0.787868 0.150000
v -0.212132 -1.000000 0.212132
v -0.150000 -1.212132 0.150000
v 0.000000 -1.300000 0.000000
v -0.212132 -0.787868 0.000000
v -0.300000 -1.000000 0.000000
v -0.212132 -1.212132 0.000000
v -0.150000 -0.787868 -0.150000
v -0.212132 -1.000000 -0.212132
v -0.150000 -1.212132 -0.150000
v 0.000000 -0.700000 0.000000
v 0.000000 -0.787868 -0.212132
v 0.000000 -1.000000 -0.300000
v 0.000000 -1.212132 -0.212132
vn 0.5294 0.6630 -0.5294
vn 0.7071 -0.0000 -0.7071
vn 0.5294 -0.6630 -0.5294
vn 0.7486 0.6630 -0.0000
vn 1.0000 -0.0000 -0.0000
vn 0.7486 -0.6630 -0.0000
vn 0.5294 0.6630 0.5294
vn 0.7071 -0.0000 0.7071
vn 0.5294 -0.6630 0.5294
vn -0.0000 0.6630 0.7486
vn -0.0000 -0.0000 1.0000
vn -0.0000 -0.6630 0.7486
vn -0.5294 0.6630 0.5294
vn -0.7071 -0.0000 0.7071
vn -0.5294 -0.6630 0.5294
vn -0.0000 -1.0000 -0.0000
vn -0.7486 0.6630 -0.0000
vn -1.0000 -0.0000 -0.0000
vn -0.7486 -0.6630 -0.0000
vn -0.5294 0.6630 -0.5294
vn -0.7071 -0.0000 -0.7071
vn -0.5294 -0.6630 -0.5294
vn -0.0000 1.0000 -0.0000
vn -0.0000 0.6630 -0.7486
vn -0.0000 -0.0000 -1.0000
vn -0.0000 -0.6630 -0.7486
vt 0.750000 0.500000
vt 0.625000 0.250000
vt 0.750000 0.250000
vt 0.750000 0.750000
vt 0.687500 1.000000
vt 0.625000 0.750000
vt 0.687500 0.000000
vt 0.625000 0.500000
vt 0.500000 0.500000
vt 0.500000 0.250000
vt 0.562500 1.000000
vt 0.500000 0.750000
vt 0.562500 0.000000
vt 0.375000 0.250000
vt 0.437500 1.000000
vt 0.375000 0.750000
vt 0.437500 0.000000
vt 0.375000 0.500000
vt 0.250000 0.250000
vt 0.312500 1.000000
vt 0.250000 0.750000
vt 0.312500 0.000000
vt 0.250000 0.500000
vt 0.125000 0.500000
vt 0.125000 0.250000
vt 0.187500 1.000000
vt 0.125000 0.750000
vt 0.187500 0.000000
vt 0.062500 0.000000
vt 0.000000 0.250000
vt 0.000000 0.500000
vt 0.062500 1.000000
vt 0.000000 0.750000
vt 0.937500 0.000000
vt 1.000000 0.250000
vt 0.875000 0.250000
vt 1.000000 0.750000
vt 0.875000 0.500000
vt 1.000000 0.500000
vt 0.937500 1.000000
vt 0.875000 0.750000
vt 0.812500 0.000000
vt 0.812500 1.000000
s 1
usemtl Material
f 59/49/59 37/50/37 60/51/60
f 58/52/58 57/53/57 35/54/35
f 50/55/50 60/51/60 37/50/37
f 58/52/58 36/56/36 59/49/59
f 37/50/37 39/57/39 40/58/40
f 35/54/35 57/59/57 38/60/38
f 50/61/50 37/50/37 40/58/40
f 35/54/35 39/57/39 36/56/36
f 39/57/39 43/62/43 40/58/40
f 38/60/38 57/63/57 41/64/41
f 50/65/50 40/58/40 43/62/43
f 38/60/38 42/66/42 39/57/39
f 42/66/42 46/67/46 43/62/43
f 41/64/41 57/68/57 44/69/44
f 50/70/50 43/62/43 46/67/46
f 41/64/41 45/71/45 42/66/42
f 44/69/44 48/72/48 45/71/45
f 45/71/45 49/73/49 46/67/46
f 44/69/44 57/74/57 47/75/47
f 50/76/50 46/67/46 49/73/49
f 50/77/50 49/73/49 53/78/53
f 47/75/47 52/79/52 48/72/48
f 48/72/48 53/78/53 49/73/49
f 47/75/47 57/80/57 51/81/51
f 50/82/50 53/83/53 56/84/56
f 51/85/51 55/86/55 52/87/52
f 52/87/52 56/84/56 53/83/53
f 51/85/51 57/88/57 54/89/54
f 50/90/50 56/84/56 60/51/60
f 54/89/54 59/49/59 55/86/55
f 55/86/55 60/51/60 56/84/56
f 54/89/54 57/91/57 58/52/58
f 59/49/59 36/56/36 37/50/37
f 58/52/58 35/54/35 36/56/36
f 37/50/37 36/56/36 39/57/39
f 35/54/35 38/60/38 39/57/39
f 39/57/39 42/66/42 43/62/43
f 38/60/38 41/64/41 42/66/42
f 42/66/42 45/71/45 46/67/46
f 41/64/41 44/69/44 45/71/45
f 44/69/44 47/75/47 48/72/48
f 45/71/45 48/72/48 49/73/49
f 47/75/47 51/81/51 52/79/52
f 48/72/48 52/79/52 53/78/53
f 51/85/51 54/89/54 55/86/55
f 52/87/52 55/86/55 56/84/56
f 54/89/54 58/52/58 59/49/59
f 55/86/55 59/49/59 60/51/60
o Cube
v -0.400000 0.468000 0.141132
v -0.400000 0.532000 0.141132
v -0.400000 0.468000 -0.141132
v -0.400000 0.532000 -0.141132
v 0.000000 0.468000 0.220000
v 0.000000 0.532000 0.220000
v 0.000000 0.468000 -0.220000
v 0.000000 0.532000 -0.220000
v -0.133333 0.468000 -0.220000
v -0.266667 0.468000 -0.220000
v -0.266667 0.532000 -0.220000
v -0.133333 0.532000 -0.220000
v -0.266667 0.468000 0.220000
v -0.133333 0.468000 0.220000
v -0.133333 0.532000 0.220000
v -0.266667 0.532000 0.220000
v -0.400000 0.420000 -0.073333
v -0.400000 0.420000 0.073333
v -0.400000 0.580000 0.073333
v -0.400000 0.580000 -0.073333
v 0.000000 0.420000 0.073333
v 0.000000 0.420000 -0.073333
v 0.000000 0.580000 -0.073333
v 0.000000 0.580000 0.073333
v -0.133333 0.580000 -0.073333
v -0.133333 0.580000 0.073333
v -0.266667 0.580000 -0.073333
v -0.266667 0.580000 0.073333
v -0.266667 0.420000 -0.073333
v -0.266667 0.420000 0.073333
v -0.133333 0.420000 -0.073333
v -0.133333 0.420000 0.073333
v -0.500000 0.468000 0.029333
v -0.500000 0.487200 0.056453
v -0.500000 0.512800 0.056453
v -0.500000 0.532000 -0.029333
v -0.500000 0.512800 -0.056453
v -0.500000 0.487200 -0.056453
v -0.500000 0.468000 -0.029333
v -0.500000 0.532000 0.029333
v 0.400000 0.468000 0.141132
v 0.400000 0.532000 0.141132
v 0.400000 0.468000 -0.141132
v 0.400000 0.532000 -0.141132
v 0.133333 0.468000 -0.220000
v 0.266667 0.468000 -0.220000
v 0.266667 0.532000 -0.220000
v 0.133333 0.532000 -0.220000
v 0.266667 0.468000 0.220000
v 0.133333 0.468000 0.220000
v 0.133333 0.532000 0.220000
v 0.266667 0.532000 0.220000
v 0.400000 0.420000 -0.073333
v 0.400000 0.420000 0.073333
v 0.400000 0.580000 0.073333
v 0.400000 0.580000 -0.073333
v 0.133333 0.580000 -0.073333
v 0.133333 0.580000 0.073333
v 0.266667 0.580000 -0.073333
v 0.266667 0.580000 0.073333
v 0.266667 0.420000 -0.073333
v 0.266667 0.420000 0.073333
v 0.133333 0.420000 -0.073333
v 0.133333 0.420000 0.073333
v 0.500000 0.468000 0.029333
v 0.500000 0.487200 0.056453
v 0.500000 0.512800 0.056453
v 0.500000 0.532000 -0.029333
v 0.500000 0.512800 -0.056453
v 0.500000 0.487200 -0.056453
v 0.500000 0.468000 -0.029333
v 0.500000 0.532000 0.029333
vn -0.4755 -0.4842 0.7345
vn -0.4755 0.4842 0.7345
vn -0.4755 -0.4842 -0.7345
vn -0.4755 0.4842 -0.7345
vn 0.3478 -0.5503 0.7591
vn 0.3478 0.5503 0.7591
vn 0.3478 -0.5503 -0.7591
vn 0.3478 0.5503 -0.7591
vn -0.0000 -0.5869 -0.8096
vn -0.2158 -0.5412 -0.8127
vn -0.2158 0.5413 -0.8127
vn -0.0000 0.5869 -0.8096
vn -0.2158 -0.5413 0.8127
vn -0.0000 -0.5869 0.8096
vn -0.0000 0.5869 0.8096
vn -0.2158 0.5412 0.8127
vn -0.2550 -0.9163 -0.3089
vn -0.2550 -0.9163 0.3089
vn -0.2550 0.9163 0.3089
vn -0.2550 0.9163 -0.3089
vn 0.4144 -0.8987 0.1433
vn 0.4144 -0.8987 -0.1433
vn 0.4144 0.8987 -0.1433
vn 0.4144 0.8987 0.1433
vn -0.0000 0.9875 -0.1575
vn -0.0000 0.9875 0.1575
vn -0.0305 0.9826 -0.1830
vn -0.0305 0.9826 0.1830
vn -0.0305 -0.9826 -0.1830
vn -0.0305 -0.9826 0.1830
vn -0.0000 -0.9875 -0.1575
vn -0.0000 -0.9875 0.1575
vn -0.8237 -0.5486 0.1435
vn -0.8538 -0.2696 0.4454
vn -0.8538 0.2696 0.4454
vn -0.8237 0.5486 -0.1435
vn -0.8538 0.2696 -0.4454
vn -0.8538 -0.2696 -0.4454
vn -0.8237 -0.5486 -0.1435
vn -0.8237 0.5486 0.1435
vn 0.4755 -0.4842 0.7345
vn 0.4755 0.4842 0.7345
vn 0.4755 -0.4842 -0.7345
vn 0.4755 0.4842 -0.7345
vn 0.2158 -0.5412 -0.8127
vn 0.2158 0.5413 -0.8127
vn 0.2158 -0.5413 0.8127
vn 0.2158 0.5412 0.8127
vn 0.2550 -0.9163 -0.3089
vn 0.2550 -0.9163 0.3089
vn 0.2550 0.9163 0.3089
vn 0.2550 0.9163 -0.3089
vn 0.0305 0.9826 -0.1830
vn 0.0305 0.9826 0.1830
vn 0.0305 -0.9826 -0.1830
vn 0.0305 -0.9826 0.1830
vn 0.8237 -0.5486 0.1435
vn 0.8538 -0.2696 0.4454
vn 0.8538 0.2696 0.4454
vn 0.8237 0.5486 -0.1435
vn 0.8538 0.2696 -0.4454
vn 0.8538 -0.2696 -0.4454
vn 0.8237 -0.5486 -0.1435
vn 0.8237 0.5486 0.1435
vt 0.875000 0.583333
vt 0.875000 0.500000
vt 0.625000 0.416667
vt 0.375000 0.500000
vt 0.375000 0.416667
vt 0.625000 0.666667
vt 0.375000 0.750000
vt 0.375000 0.666667
vt 0.625000 0.916667
vt 0.375000 1.000000
vt 0.375000 0.916667
vt 0.291667 0.750000
vt 0.291667 0.666667
vt 0.791667 0.666667
vt 0.875000 0.750000
vt 0.791667 0.750000
vt 0.708333 0.666667
vt 0.625000 0.750000
vt 0.708333 0.750000
vt 0.208333 0.666667
vt 0.125000 0.750000
vt 0.125000 0.666667
vt 0.208333 0.750000
vt 0.375000 0.833333
vt 0.625000 0.833333
vt 0.625000 0.250000
vt 0.375000 0.333333
vt 0.375000 0.250000
vt 0.625000 0.333333
vt 0.291667 0.500000
vt 0.208333 0.583333
vt 0.208333 0.500000
vt 0.291667 0.583333
vt 0.125000 0.500000
vt 0.125000 0.583333
vt 0.791667 0.500000
vt 0.708333 0.583333
vt 0.708333 0.500000
vt 0.791667 0.583333
vt 0.625000 0.583333
vt 0.625000 0.500000
vt 0.375000 0.583333
vt 0.875000 0.666667
vt 0.625000 0.166667
vt 0.375000 0.166667
vt 0.625000 0.000000
vt 0.375000 0.083333
vt 0.375000 0.000000
vt 0.625000 0.083333
vt 0.625000 1.000000
s 1
usemtl Material
f 80/92/80 97/93/97 96/92/96
f 72/94/72 67/95/67 69/96/69
f 84/97/84 65/98/65 81/99/81
f 76/100/76 61/101/61 73/102/73
f 81/99/81 74/103/74 92/104/92
f 88/105/88 62/106/62 76/107/76
f 86/108/86 66/109/66 84/97/84
f 88/105/88 75/110/75 86/108/86
f 90/111/90 61/112/61 78/113/78
f 92/104/92 73/114/73 90/111/90
f 66/109/66 74/115/74 65/98/65
f 75/116/75 73/102/73 74/115/74
f 64/117/64 70/118/70 63/119/63
f 71/120/71 69/96/69 70/118/70
f 69/121/69 89/122/89 70/123/70
f 91/124/91 90/111/90 89/122/89
f 63/125/63 89/122/89 77/126/77
f 89/122/89 78/113/78 77/126/77
f 71/127/71 85/128/85 72/129/72
f 87/130/87 86/108/86 85/128/85
f 72/129/72 83/131/83 68/132/68
f 85/128/85 84/97/84 83/131/83
f 64/93/64 87/130/87 71/127/71
f 80/92/80 88/105/88 87/130/87
f 67/95/67 91/124/91 69/121/69
f 82/133/82 92/104/92 91/124/91
f 68/132/68 82/133/82 67/95/67
f 83/131/83 81/99/81 82/133/82
f 77/126/77 98/125/98 63/125/63
f 79/134/79 95/106/95 62/106/62
f 96/135/96 98/119/98 99/136/99
f 95/137/95 93/138/93 94/139/94
f 100/140/100 99/136/99 93/138/93
f 78/113/78 94/112/94 93/113/93
f 79/134/79 96/92/96 100/134/100
f 78/113/78 99/126/99 77/126/77
f 63/119/63 97/117/97 64/117/64
f 62/141/62 94/101/94 61/101/61
f 116/92/112 129/93/121 104/93/104
f 67/95/67 108/94/72 105/96/69
f 101/101/101 112/100/108 109/102/107
f 110/103/74 81/99/81 124/104/92
f 120/105/114 102/106/102 115/134/111
f 66/109/66 118/108/86 84/97/84
f 111/110/75 120/105/114 118/108/86
f 101/112/101 122/111/116 114/113/110
f 109/114/107 124/104/92 122/111/116
f 110/115/74 66/109/66 65/98/65
f 109/102/107 111/116/75 110/115/74
f 106/118/105 104/117/104 103/119/103
f 105/96/69 107/120/106 106/118/105
f 121/122/115 105/121/69 106/123/105
f 122/111/116 123/124/91 121/122/115
f 103/125/103 121/122/115 106/123/105
f 114/113/110 121/122/115 113/126/109
f 117/128/85 107/127/106 108/129/72
f 118/108/86 119/130/113 117/128/85
f 83/131/83 108/129/72 68/132/68
f 84/97/84 117/128/85 83/131/83
f 119/130/113 104/93/104 107/127/106
f 120/105/114 116/92/112 119/130/113
f 123/124/91 67/95/67 105/121/69
f 124/104/92 82/133/82 123/124/91
f 130/125/122 113/126/109 103/125/103
f 127/106/119 115/134/111 102/106/102
f 130/119/122 128/135/120 131/136/123
f 125/138/117 127/137/119 126/139/118
f 131/136/123 132/140/124 125/138/117
f 114/113/110 126/112/118 101/112/101
f 132/134/124 116/92/112 115/134/111
f 131/126/123 114/113/110 113/126/109
f 129/117/121 103/119/103 104/117/104
f 126/101/118 102/141/102 101/101/101
f 80/92/80 64/93/64 97/93/97
f 72/94/72 68/132/68 67/95/67
f 84/97/84 66/109/66 65/98/65
f 76/100/76 62/141/62 61/101/61
f 81/99/81 65/98/65 74/103/74
f 88/105/88 79/134/79 62/106/62
f 86/108/86 75/110/75 66/109/66
f 88/105/88 76/107/76 75/110/75
f 90/111/90 73/114/73 61/112/61
f 92/104/92 74/103/74 73/114/73
f 66/109/66 75/116/75 74/115/74
f 75/116/75 76/100/76 73/102/73
f 64/117/64 71/120/71 70/118/70
f 71/120/71 72/94/72 69/96/69
f 69/121/69 91/124/91 89/122/89
f 91/124/91 92/104/92 90/111/90
f 63/125/63 70/123/70 89/122/89
f 89/122/89 90/111/90 78/113/78
f 71/127/71 87/130/87 85/128/85
f 87/130/87 88/105/88 86/108/86
f 72/129/72 85/128/85 83/131/83
f 85/128/85 86/108/86 84/97/84
f 64/93/64 80/92/80 87/130/87
f 80/92/80 79/134/79 88/105/88
f 67/95/67 82/133/82 91/124/91
f 82/133/82 81/99/81 92/104/92
f 68/132/68 83/131/83 82/133/82
f 83/131/83 84/97/84 81/99/81
f 77/126/77 99/126/99 98/125/98
f 79/134/79 100/134/100 95/106/95
f 96/135/96 97/117/97 98/119/98
f 95/137/95 100/140/100 93/138/93
f 100/140/100 96/135/96 99/136/99
f 78/113/78 61/112/61 94/112/94
f 79/134/79 80/92/80 96/92/96
f 78/113/78 93/113/93 99/126/99
f 63/119/63 98/119/98 97/117/97
f 62/141/62 95/141/95 94/101/94
f 116/92/112 128/92/120 129/93/121
f 67/95/67 68/132/68 108/94/72
f 101/101/101 102/141/102 112/100/108
f 110/103/74 65/98/65 81/99/81
f 120/105/114 112/107/108 102/106/102
f 66/109/66 111/110/75 118/108/86
f 111/110/75 112/107/108 120/105/114
f 101/112/101 109/114/107 122/111/116
f 109/114/107 110/103/74 124/104/92
f 110/115/74 111/116/75 66/109/66
f 109/102/107 112/100/108 111/116/75
f 106/118/105 107/120/106 104/117/104
f 105/96/69 108/94/72 107/120/106
f 121/122/115 123/124/91 105/121/69
f 122/111/116 124/104/92 123/124/91
f 103/125/103 113/126/109 121/122/115
f 114/113/110 122/111/116 121/122/115
f 117/128/85 119/130/113 107/127/106
f 118/108/86 120/105/114 119/130/113
f 83/131/83 117/128/85 108/129/72
f 84/97/84 118/108/86 117/128/85
f 119/130/113 116/92/112 104/93/104
f 120/105/114 115/134/111 116/92/112
f 123/124/91 82/133/82 67/95/67
f 124/104/92 81/99/81 82/133/82
f 130/125/122 131/126/123 113/126/109
f 127/106/119 132/134/124 115/134/111
f 130/119/122 129/117/121 128/135/120
f 125/138/117 132/140/124 127/137/119
f 131/136/123 128/135/120 132/140/124
f 114/113/110 125/113/117 126/112/118
f 132/134/124 128/92/120 116/92/112
f 131/126/123 125/113/117 114/113/110
f 129/117/121 130/119/122 103/119/103
f 126/101/118 127/141/119 102/141/102
