# Blender 4.5.0
# www.blender.org
mtllib torch.mtl
o Cube
v -1.000000 0.000000 2.000000
v -1.000000 2.000000 2.000000
v -1.000000 0.000000 0.500000
v -1.000000 2.000000 0.500000
v -0.500000 0.000000 2.000000
v -0.500000 2.000000 2.000000
v -0.500000 0.000000 0.500000
v -0.500000 2.000000 0.500000
v -1.000000 2.000000 0.000000
v -1.000000 0.000000 0.000000
v -0.500000 0.000000 0.000000
v -0.500000 2.000000 0.000000
v 0.000000 2.000000 0.500000
v 0.000000 0.000000 0.500000
v 0.000000 2.000000 0.000000
v 0.000000 0.000000 0.000000
v -1.000000 0.000000 1.625000
v -1.000000 2.000000 1.625000
v -0.500000 0.000000 1.625000
v -0.500000 2.000000 1.625000
v -0.300000 2.000000 1.625000
v -0.300000 2.000000 2.000000
v -0.300000 0.000000 2.000000
v -0.300000 0.000000 1.625000
v 1.000000 0.000000 2.000000
v 1.000000 2.000000 2.000000
v 1.000000 0.000000 0.500000
v 1.000000 2.000000 0.500000
v 0.500000 0.000000 2.000000
v 0.500000 2.000000 2.000000
v 0.500000 0.000000 0.500000
v 0.500000 2.000000 0.500000
v 1.000000 2.000000 0.000000
v 1.000000 0.000000 0.000000
v 0.500000 0.000000 0.000000
v 0.500000 2.000000 0.000000
v 1.000000 0.000000 1.625000
v 1.000000 2.000000 1.625000
v 0.500000 0.000000 1.625000
v 0.500000 2.000000 1.625000
v 0.300000 2.000000 1.625000
v 0.300000 2.000000 2.000000
v 0.300000 0.000000 2.000000
v 0.300000 0.000000 1.625000
vn -0.5774 -0.5774 0.5774
vn -0.5774 0.5774 0.5774
vn -0.7071 -0.7071 -0.0000
vn -0.7071 0.7071 -0.0000
vn -0.0000 -0.7071 0.7071
vn -0.0000 0.7071 0.7071
vn 0.3015 -0.9045 0.3015
vn 0.3015 0.9045 0.3015
vn -0.5774 0.5774 -0.5774
vn -0.5774 -0.5774 -0.5774
vn -0.0000 -0.7071 -0.7071
vn -0.0000 0.7071 -0.7071
vn 0.3333 0.6667 0.6667
vn 0.3333 -0.6667 0.6667
vn 0.3333 0.6667 -0.6667
vn 0.3333 -0.6667 -0.6667
vn 0.3015 -0.9045 -0.3015
vn 0.3015 0.9045 -0.3015
vn 0.5774 0.5774 -0.5774
vn 0.5774 0.5774 0.5774
vn 0.5774 -0.5774 0.5774
vn 0.5774 -0.5774 -0.5774
vn 0.7071 -0.7071 -0.0000
vn 0.7071 0.7071 -0.0000
vn -0.3015 -0.9045 0.3015
vn -0.3015 0.9045 0.3015
vn -0.3015 -0.9045 -0.3015
vn -0.3015 0.9045 -0.3015
vt 0.476191 0.386905
vt 0.000000 0.386905
vt 0.000000 0.119048
vt 0.476191 0.119048
vt 0.595238 0.000000
vt 0.595238 0.476191
vt 0.476191 0.476191
vt 0.476191 0.000000
vt 0.952381 0.476191
vt 0.952381 0.000000
vt 1.000000 0.000000
vt 1.000000 0.476191
vt 0.880952 0.952381
vt 0.880952 0.476191
vt 1.000000 0.476191
vt 1.000000 0.952381
vt 0.595238 0.565476
vt 0.476191 0.565476
vt 0.476191 0.476191
vt 0.595238 0.476191
vt 0.714286 0.565476
vt 0.714286 0.476191
vt 0.000000 0.952381
vt 0.000000 0.476191
vt 0.119048 0.476191
vt 0.119048 0.952381
vt 0.476191 0.833333
vt 0.595238 0.833333
vt 0.595238 0.952381
vt 0.476191 0.952381
vt 0.714286 0.833333
vt 0.714286 0.952381
vt 0.000000 0.000000
vt 0.476191 0.000000
vt 0.357143 0.476191
vt 0.357143 0.952381
vt 0.238095 0.952381
vt 0.238095 0.476191
vt 0.833333 0.833333
vt 0.833333 0.952381
vt 0.357143 0.833333
vt 0.863095 0.000000
vt 0.863095 0.476191
vt 0.476191 0.476191
vt 0.000000 0.476191
vt 0.952381 0.000000
vt 0.952381 0.476191
vt 0.761905 0.476191
vt 0.761905 0.565476
vt 0.428571 0.565476
vt 0.428571 0.476191
vt 0.833333 0.476191
s 1
usemtl Material.002
f 17/1/3 18/2/4 4/3/4 3/4/3
f 8/5/8 7/6/7 14/7/14 13/8/13
f 19/9/17 20/10/18 21/11/19 24/12/22
f 5/13/5 6/14/6 2/15/2 1/16/1
f 17/17/3 19/18/17 5/19/5 1/20/1
f 20/21/18 18/17/4 2/20/2 6/22/6
f 10/23/10 9/24/9 12/25/12 11/26/11
f 7/27/7 3/28/3 10/29/10 11/30/11
f 4/28/4 8/31/8 12/32/12 9/29/9
f 3/4/3 4/3/4 9/33/9 10/34/10
f 13/35/13 14/36/14 16/37/16 15/38/15
f 12/32/12 8/31/8 13/39/13 15/40/15
f 11/26/11 12/25/12 15/38/15 16/37/16
f 7/27/7 11/30/11 16/36/16 14/41/14
f 8/31/8 4/28/4 18/17/4 20/21/18
f 3/28/3 7/27/7 19/18/17 17/17/3
f 7/6/7 8/5/8 20/42/18 19/43/17
f 1/44/1 2/45/2 18/2/4 17/1/3
f 24/43/22 21/42/19 22/46/20 23/47/21
f 20/21/18 6/22/6 22/48/20 21/49/19
f 5/19/5 19/18/17 24/50/22 23/51/21
f 6/14/6 5/13/5 23/40/21 22/52/20
f 37/1/23 27/4/23 28/3/24 38/2/24
f 32/5/26 13/8/13 14/7/14 31/6/25
f 39/9/27 44/12/10 41/11/9 40/10/28
f 29/13/5 25/16/21 26/15/20 30/14/6
f 37/17/23 25/20/21 29/19/5 39/18/27
f 40/21/28 30/22/6 26/20/20 38/17/24
f 34/23/22 35/26/11 36/25/12 33/24/19
f 31/27/25 35/30/11 34/29/22 27/28/23
f 28/28/24 33/29/19 36/32/12 32/31/26
f 27/4/23 34/34/22 33/33/19 28/3/24
f 36/32/12 15/40/15 13/39/13 32/31/26
f 35/26/11 16/37/16 15/38/15 36/25/12
f 31/27/25 14/41/14 16/36/16 35/30/11
f 32/31/26 40/21/28 38/17/24 28/28/24
f 27/28/23 37/17/23 39/18/27 31/27/25
f 31/6/25 39/43/27 40/42/28 32/5/26
f 25/44/21 37/1/23 38/2/24 26/45/20
f 44/43/10 43/47/1 42/46/2 41/42/9
f 40/21/28 41/49/9 42/48/2 30/22/6
f 29/19/5 43/51/1 44/50/10 39/18/27
f 30/14/6 42/52/2 43/40/1 29/13/5
o Cylinder
v 0.000000 -0.759678 -0.012933
v 0.000000 3.050395 1.214194
v 0.068282 -0.761978 -0.006613
v 0.097545 3.047109 1.223222
v 0.133939 -0.768790 0.012103
v 0.191342 3.037378 1.249959
v 0.194450 -0.779853 0.042496
v 0.277785 3.021575 1.293377
v 0.247487 -0.794740 0.083398
v 0.353553 3.000308 1.351809
v 0.291014 -0.812880 0.133237
v 0.415735 2.974393 1.423007
v 0.323358 -0.833575 0.190098
v 0.461940 2.944828 1.504238
v 0.343275 -0.856032 0.251796
v 0.490393 2.912748 1.592378
v 0.350000 -0.879385 0.315960
v 0.500000 2.879385 1.684040
v 0.343275 -0.902739 0.380124
v 0.490393 2.846023 1.775703
v 0.323358 -0.925195 0.441822
v 0.461940 2.813942 1.863843
v 0.291014 -0.945891 0.498683
v 0.415735 2.784377 1.945073
v 0.247487 -0.964031 0.548522
v 0.353553 2.758463 2.016272
v 0.194450 -0.978918 0.589424
v 0.277785 2.737195 2.074703
v 0.133939 -0.989980 0.619817
v 0.191342 2.721393 2.118122
v 0.068282 -0.996792 0.638533
v 0.097545 2.711661 2.144858
v 0.000000 -0.999092 0.644852
v 0.000000 2.708375 2.153887
v -0.068282 -0.996792 0.638533
v -0.097545 2.711661 2.144858
v -0.133939 -0.989980 0.619817
v -0.191342 2.721393 2.118122
v -0.194450 -0.978918 0.589424
v -0.277785 2.737195 2.074703
v -0.247487 -0.964031 0.548522
v -0.353553 2.758463 2.016272
v -0.291014 -0.945891 0.498683
v -0.415735 2.784377 1.945073
v -0.323358 -0.925195 0.441822
v -0.461940 2.813942 1.863843
v -0.343275 -0.902739 0.380124
v -0.490393 2.846023 1.775703
v -0.350000 -0.879385 0.315960
v -0.500000 2.879385 1.684040
v -0.343275 -0.856032 0.251796
v -0.490393 2.912748 1.592378
v -0.323358 -0.833575 0.190098
v -0.461940 2.944828 1.504238
v -0.291014 -0.812880 0.133237
v -0.415735 2.974393 1.423007
v -0.247487 -0.794740 0.083398
v -0.353553 3.000308 1.351809
v -0.194450 -0.779853 0.042496
v -0.277785 3.021575 1.293377
v -0.133939 -0.768790 0.012103
v -0.191342 3.037378 1.249959
v -0.068282 -0.761978 -0.006613
v -0.097545 3.047109 1.223222
v 0.063404 3.176344 1.452912
v 0.000000 3.178480 1.447044
v 0.124372 3.170019 1.470291
v 0.180560 3.159747 1.498513
v 0.229810 3.145923 1.536494
v 0.270228 3.129079 1.582773
v 0.300261 3.109861 1.635572
v 0.318755 3.089009 1.692863
v 0.325000 3.067323 1.752444
v 0.318755 3.045638 1.812025
v 0.300261 3.024786 1.869316
v 0.270228 3.005568 1.922115
v 0.229810 2.988724 1.968395
v 0.180560 2.974900 2.006375
v 0.124372 2.964628 2.034597
v 0.063404 2.958303 2.051976
v 0.000000 2.956167 2.057844
v -0.063404 2.958303 2.051976
v -0.124372 2.964628 2.034597
v -0.180560 2.974900 2.006375
v -0.229810 2.988724 1.968395
v -0.270228 3.005568 1.922115
v -0.300261 3.024786 1.869316
v -0.318755 3.045638 1.812025
v -0.325000 3.067323 1.752444
v -0.318755 3.089009 1.692863
v -0.300261 3.109861 1.635572
v -0.270228 3.129079 1.582773
v -0.229810 3.145923 1.536494
v -0.180560 3.159747 1.498513
v -0.124372 3.170019 1.470291
v -0.063404 3.176344 1.452912
v 0.019021 3.287968 1.730989
v 0.000000 3.288609 1.729228
v 0.037312 3.286070 1.736202
v 0.054168 3.282989 1.744669
v 0.068943 3.278841 1.756063
v 0.081068 3.273788 1.769947
v 0.090078 3.268023 1.785787
v 0.095627 3.261767 1.802974
v 0.097500 3.255262 1.820848
v 0.095627 3.248756 1.838722
v 0.090078 3.242500 1.855910
v 0.081068 3.236735 1.871750
v 0.068943 3.231682 1.885633
v 0.054168 3.227535 1.897027
v 0.037312 3.224453 1.905494
v 0.019021 3.222555 1.910708
v 0.000000 3.221915 1.912468
v -0.019021 3.222555 1.910708
v -0.037312 3.224453 1.905494
v -0.054168 3.227535 1.897027
v -0.068943 3.231682 1.885633
v -0.081068 3.236735 1.871750
v -0.090078 3.242500 1.855910
v -0.095627 3.248756 1.838722
v -0.097500 3.255262 1.820848
v -0.095627 3.261767 1.802974
v -0.090078 3.268023 1.785787
v -0.081068 3.273788 1.769947
v -0.068943 3.278841 1.756063
v -0.054168 3.282989 1.744669
v -0.037312 3.286070 1.736202
v -0.019021 3.287968 1.730989
vn -0.0000 -0.4125 -0.9110
vn -0.0000 0.6306 -0.7761
vn 0.1395 -0.4172 -0.8980
vn 0.1844 0.6244 -0.7591
vn 0.2736 -0.4311 -0.8598
vn 0.3616 0.6060 -0.7085
vn 0.3972 -0.4537 -0.7977
vn 0.5250 0.5761 -0.6265
vn 0.5055 -0.4841 -0.7142
vn 0.6682 0.5359 -0.5160
vn 0.5944 -0.5212 -0.6124
vn 0.7857 0.4869 -0.3815
vn 0.6605 -0.5635 -0.4962
vn 0.8731 0.4310 -0.2280
vn 0.7012 -0.6093 -0.3702
vn 0.9268 0.3704 -0.0614
vn 0.7149 -0.6570 -0.2391
vn 0.9450 0.3074 0.1119
vn 0.7012 -0.7047 -0.1081
vn 0.9268 0.2443 0.2851
vn 0.6605 -0.7506 0.0179
vn 0.8731 0.1837 0.4517
vn 0.5944 -0.7929 0.1341
vn 0.7857 0.1278 0.6052
vn 0.5055 -0.8299 0.2359
vn 0.6682 0.0788 0.7398
vn 0.3972 -0.8603 0.3194
vn 0.5250 0.0386 0.8502
vn 0.2736 -0.8829 0.3815
vn 0.3616 0.0088 0.9323
vn 0.1395 -0.8969 0.4198
vn 0.1844 -0.0096 0.9828
vn -0.0000 -0.9016 0.4327
vn -0.0000 -0.0158 0.9999
vn -0.1395 -0.8969 0.4198
vn -0.1844 -0.0096 0.9828
vn -0.2736 -0.8829 0.3815
vn -0.3616 0.0088 0.9323
vn -0.3972 -0.8603 0.3194
vn -0.5250 0.0386 0.8502
vn -0.5055 -0.8299 0.2359
vn -0.6682 0.0788 0.7398
vn -0.5944 -0.7929 0.1341
vn -0.7857 0.1278 0.6052
vn -0.6605 -0.7506 0.0179
vn -0.8731 0.1837 0.4517
vn -0.7012 -0.7047 -0.1081
vn -0.9268 0.2443 0.2851
vn -0.7149 -0.6570 -0.2391
vn -0.9450 0.3074 0.1119
vn -0.7012 -0.6093 -0.3702
vn -0.9268 0.3704 -0.0614
vn -0.6605 -0.5635 -0.4962
vn -0.8731 0.4310 -0.2280
vn -0.5944 -0.5212 -0.6124
vn -0.7857 0.4869 -0.3815
vn -0.5055 -0.4841 -0.7142
vn -0.6682 0.5359 -0.5160
vn -0.3972 -0.4537 -0.7977
vn -0.5250 0.5761 -0.6265
vn -0.2736 -0.4311 -0.8598
vn -0.3616 0.6060 -0.7085
vn -0.1395 -0.4172 -0.8980
vn -0.1844 0.6244 -0.7591
vn 0.1385 0.8999 -0.4135
vn -0.0000 0.9046 -0.4263
vn 0.2717 0.8861 -0.3755
vn 0.3944 0.8637 -0.3138
vn 0.5020 0.8335 -0.2309
vn 0.5903 0.7967 -0.1298
vn 0.6559 0.7547 -0.0144
vn 0.6963 0.7091 0.1107
vn 0.7100 0.6618 0.2409
vn 0.6963 0.6144 0.3710
vn 0.6559 0.5689 0.4962
vn 0.5903 0.5269 0.6115
vn 0.5020 0.4901 0.7126
vn 0.3944 0.4599 0.7956
vn 0.2717 0.4374 0.8572
vn 0.1385 0.4236 0.8952
vn -0.0000 0.4190 0.9080
vn -0.1385 0.4236 0.8952
vn -0.2717 0.4374 0.8572
vn -0.3944 0.4599 0.7956
vn -0.5020 0.4901 0.7126
vn -0.5903 0.5269 0.6115
vn -0.6559 0.5689 0.4962
vn -0.6963 0.6144 0.3710
vn -0.7100 0.6618 0.2409
vn -0.6963 0.7091 0.1107
vn -0.6559 0.7547 -0.0144
vn -0.5903 0.7967 -0.1298
vn -0.5020 0.8335 -0.2309
vn -0.3944 0.8637 -0.3138
vn -0.2717 0.8861 -0.3755
vn -0.1385 0.8999 -0.4135
vn 0.0725 0.9970 -0.0252
vn -0.0000 0.9995 -0.0319
vn 0.1423 0.9898 -0.0053
vn 0.2066 0.9781 0.0270
vn 0.2629 0.9622 0.0704
vn 0.3091 0.9430 0.1234
vn 0.3435 0.9210 0.1838
vn 0.3647 0.8971 0.2493
vn 0.3718 0.8723 0.3175
vn 0.3647 0.8475 0.3857
vn 0.3435 0.8237 0.4512
vn 0.3092 0.8017 0.5116
vn 0.2629 0.7824 0.5646
vn 0.2066 0.7666 0.6080
vn 0.1423 0.7548 0.6403
vn 0.0725 0.7476 0.6602
vn -0.0000 0.7452 0.6669
vn -0.0725 0.7476 0.6602
vn -0.1423 0.7548 0.6403
vn -0.2066 0.7666 0.6080
vn -0.2629 0.7824 0.5646
vn -0.3092 0.8017 0.5116
vn -0.3435 0.8237 0.4512
vn -0.3647 0.8475 0.3857
vn -0.3718 0.8723 0.3175
vn -0.3647 0.8971 0.2493
vn -0.3435 0.9210 0.1838
vn -0.3092 0.9430 0.1234
vn -0.2629 0.9622 0.0704
vn -0.2066 0.9781 0.0270
vn -0.1423 0.9898 -0.0053
vn -0.0725 0.9970 -0.0252
vt 0.406493 1.498144
vt 0.392489 -0.407392
vt 0.415373 -0.407919
vt 0.422511 1.497775
vt 0.438706 -0.408098
vt 0.438844 1.497650
vt 0.461591 -0.407919
vt 0.454864 1.497775
vt 0.483149 -0.407392
vt 0.469955 1.498144
vt 0.502552 -0.406535
vt 0.483537 1.498744
vt 0.519053 -0.405382
vt 0.495088 1.499551
vt 0.541706 1.499104
vt 0.519053 -0.406015
vt 0.538454 -0.407021
vt 0.555286 1.498401
vt 0.560011 -0.407713
vt 0.570376 1.497916
vt 0.582896 -0.408066
vt 0.586396 1.497669
vt 0.606229 -0.408066
vt 0.602729 1.497669
vt 0.629114 -0.407713
vt 0.618748 1.497916
vt 0.650671 -0.407021
vt 0.633838 1.498401
vt 0.670071 -0.406015
vt 0.647419 1.499104
vt 0.027602 1.500000
vt 0.000000 -0.404736
vt 0.016499 -0.406015
vt 0.039151 1.499104
vt 0.035900 -0.407021
vt 0.052731 1.498401
vt 0.057457 -0.407713
vt 0.067821 1.497916
vt 0.080342 -0.408066
vt 0.083841 1.497669
vt 0.103675 -0.408066
vt 0.100174 1.497669
vt 0.126559 -0.407713
vt 0.116193 1.497916
vt 0.148116 -0.407020
vt 0.131283 1.498401
vt 0.167517 -0.406015
vt 0.144864 1.499104
vt 0.184016 -0.404736
vt 0.156413 1.500000
vt 0.210306 1.499551
vt 0.184016 -0.405381
vt 0.203415 -0.406535
vt 0.223885 1.498744
vt 0.224970 -0.407392
vt 0.238974 1.498144
vt 0.247854 -0.407919
vt 0.254993 1.497775
vt 0.271187 -0.408098
vt 0.271326 1.497650
vt 0.294073 -0.407919
vt 0.287346 1.497775
vt 0.315631 -0.407392
vt 0.302436 1.498144
vt 0.335033 -0.406535
vt 0.316018 1.498744
vt 0.351535 -0.405381
vt 0.327569 1.499551
vt 0.699534 -0.106041
vt 0.683035 -0.139039
vt 0.715238 -0.191895
vt 0.725962 -0.170447
vt 0.377825 1.499551
vt 0.351535 -0.405381
vt 0.370933 -0.406535
vt 0.391404 1.498744
vt 0.817394 -0.019994
vt 0.826468 0.007167
vt 0.832719 0.037347
vt 0.835905 0.069386
vt 0.835905 0.102052
vt 0.832719 0.134091
vt 0.826468 0.164270
vt 0.817394 0.191431
vt 0.805845 0.214530
vt 0.792264 0.232679
vt 0.777174 0.245179
vt 0.761155 0.251552
vt 0.744822 0.251552
vt 0.728802 0.245179
vt 0.713712 0.232679
vt 0.700132 0.214530
vt 0.688583 0.191431
vt 0.679508 0.164270
vt 0.673258 0.134091
vt 0.670071 0.102052
vt 0.670071 0.069385
vt 0.673258 0.037347
vt 0.679508 0.007167
vt 0.688583 -0.019994
vt 0.700132 -0.043093
vt 0.713712 -0.061241
vt 0.728802 -0.073742
vt 0.744822 -0.080115
vt 0.761155 -0.080115
vt 0.777174 -0.073742
vt 0.792264 -0.061241
vt 0.805845 -0.043093
vt 0.849078 -0.245141
vt 0.843274 -0.217116
vt 0.795512 -0.268175
vt 0.797253 -0.276582
vt 0.880014 -0.177841
vt 0.867051 -0.139039
vt 0.834848 -0.191895
vt 0.222877 -0.498984
vt 0.236888 -0.499541
vt 0.419281 -0.499884
vt 0.434447 -0.500000
vt 0.602146 -0.500000
vt 0.617021 -0.499771
vt 0.114467 -0.499771
vt 0.128479 -0.499320
vt 0.699534 -0.474074
vt 0.718934 -0.500000
vt 0.738572 -0.426520
vt 0.725962 -0.409668
vt 0.718935 -0.080115
vt 0.738572 -0.153595
vt 0.055538 -0.499321
vt 0.069550 -0.499770
vt 0.251762 -0.499884
vt 0.449322 -0.499884
vt 0.631033 -0.499321
vt 0.867051 -0.441076
vt 0.880014 -0.402274
vt 0.843274 -0.362998
vt 0.834848 -0.388219
vt 0.683035 -0.441076
vt 0.715237 -0.388219
vt 0.558092 -0.499321
vt 0.572104 -0.499771
vt 0.084425 -0.500000
vt 0.266929 -0.500000
vt 0.463335 -0.499541
vt 0.850552 -0.106041
vt 0.831151 -0.080115
vt 0.811513 -0.153595
vt 0.824124 -0.170447
vt 0.850552 -0.474074
vt 0.824124 -0.409668
vt 0.670072 -0.402274
vt 0.706811 -0.362998
vt 0.586979 -0.500000
vt 0.099591 -0.500000
vt 0.281804 -0.499884
vt 0.670072 -0.177841
vt 0.706811 -0.217116
vt 0.831151 -0.500000
vt 0.811513 -0.426520
vt 0.404406 -0.499541
vt 0.390395 -0.498984
vt 0.295817 -0.499541
vt 0.751945 -0.294607
vt 0.752832 -0.303532
vt 0.754573 -0.311939
vt 0.757101 -0.319506
vt 0.760319 -0.325940
vt 0.764102 -0.330996
vt 0.768305 -0.334478
vt 0.772768 -0.336254
vt 0.777318 -0.336254
vt 0.781780 -0.334478
vt 0.785984 -0.330996
vt 0.789767 -0.325940
vt 0.792984 -0.319506
vt 0.795512 -0.311939
vt 0.797253 -0.303532
vt 0.798141 -0.294607
vt 0.798141 -0.285507
vt 0.792984 -0.260609
vt 0.789767 -0.254174
vt 0.785984 -0.249118
vt 0.781780 -0.245636
vt 0.777318 -0.243861
vt 0.772768 -0.243861
vt 0.768305 -0.245636
vt 0.764102 -0.249118
vt 0.760319 -0.254174
vt 0.757101 -0.260609
vt 0.754573 -0.268175
vt 0.752832 -0.276582
vt 0.751945 -0.285507
vt 0.701007 -0.245140
vt 0.698049 -0.274891
vt 0.852037 -0.274891
vt 0.852037 -0.305224
vt 0.701007 -0.334974
vt 0.849078 -0.334974
vt 0.752584 -0.141987
vt 0.767460 -0.136069
vt 0.782626 -0.136069
vt 0.797501 -0.438128
vt 0.797501 -0.141987
vt 0.782626 -0.444046
vt 0.767460 -0.444046
vt 0.752584 -0.438128
vt 0.698049 -0.305224
s 1
usemtl Material.001
f 45/53/29 46/54/30 48/55/32 47/56/31
f 47/56/31 48/55/32 50/57/34 49/58/33
f 49/58/33 50/57/34 52/59/36 51/60/35
f 51/60/35 52/59/36 54/61/38 53/62/37
f 53/62/37 54/61/38 56/63/40 55/64/39
f 55/64/39 56/63/40 58/65/42 57/66/41
f 57/67/41 58/68/42 60/69/44 59/70/43
f 59/70/43 60/69/44 62/71/46 61/72/45
f 61/72/45 62/71/46 64/73/48 63/74/47
f 63/74/47 64/73/48 66/75/50 65/76/49
f 65/76/49 66/75/50 68/77/52 67/78/51
f 67/78/51 68/77/52 70/79/54 69/80/53
f 69/80/53 70/79/54 72/81/56 71/82/55
f 71/83/55 72/84/56 74/85/58 73/86/57
f 73/86/57 74/85/58 76/87/60 75/88/59
f 75/88/59 76/87/60 78/89/62 77/90/61
f 77/90/61 78/89/62 80/91/64 79/92/63
f 79/92/63 80/91/64 82/93/66 81/94/65
f 81/94/65 82/93/66 84/95/68 83/96/67
f 83/96/67 84/95/68 86/97/70 85/98/69
f 85/98/69 86/97/70 88/99/72 87/100/71
f 87/100/71 88/99/72 90/101/74 89/102/73
f 89/103/73 90/104/74 92/105/76 91/106/75
f 91/106/75 92/105/76 94/107/78 93/108/77
f 93/108/77 94/107/78 96/109/80 95/110/79
f 95/110/79 96/109/80 98/111/82 97/112/81
f 97/112/81 98/111/82 100/113/84 99/114/83
f 99/114/83 100/113/84 102/115/86 101/116/85
f 101/116/85 102/115/86 104/117/88 103/118/87
f 103/118/87 104/117/88 106/119/90 105/120/89
f 58/121/42 56/122/40 114/123/98 115/124/99
f 105/125/89 106/126/90 108/127/92 107/128/91
f 107/128/91 108/127/92 46/54/30 45/53/29
f 45/129/29 47/130/31 49/131/33 51/132/35 53/133/37 55/134/39 57/135/41 59/136/43 61/137/45 63/138/47 65/139/49 67/140/51 69/141/53 71/142/55 73/143/57 75/144/59 77/145/61 79/146/63 81/147/65 83/148/67 85/149/69 87/150/71 89/151/73 91/152/75 93/153/77 95/154/79 97/155/81 99/156/83 101/157/85 103/158/87 105/159/89 107/160/91
f 125/161/109 124/162/108 156/163/140 157/164/141
f 76/165/60 74/166/58 123/167/107 124/162/108
f 94/107/78 92/105/76 132/168/116 133/169/117
f 50/57/34 48/55/32 109/170/93 111/171/95
f 68/77/52 66/75/50 119/172/103 120/173/104
f 86/97/70 84/95/68 128/174/112 129/175/113
f 104/176/88 102/177/86 137/178/121 138/179/122
f 60/180/44 58/121/42 115/124/99 116/181/100
f 78/89/62 76/87/60 124/182/108 125/183/109
f 96/109/80 94/107/78 133/169/117 134/184/118
f 52/59/36 50/57/34 111/171/95 112/185/96
f 70/79/54 68/77/52 120/173/104 121/186/105
f 88/187/72 86/188/70 129/189/113 130/190/114
f 106/191/90 104/176/88 138/179/122 139/192/123
f 62/71/46 60/69/44 116/193/100 117/194/101
f 80/91/64 78/89/62 125/183/109 126/195/110
f 98/111/82 96/109/80 134/184/118 135/196/119
f 54/61/38 52/59/36 112/185/96 113/197/97
f 72/198/56 70/199/54 121/200/105 122/201/106
f 90/202/74 88/187/72 130/190/114 131/203/115
f 108/204/92 106/191/90 139/192/123 140/205/124
f 64/73/48 62/71/46 117/194/101 118/206/102
f 82/93/66 80/91/64 126/195/110 127/207/111
f 100/113/84 98/111/82 135/196/119 136/208/120
f 56/122/40 54/209/38 113/210/97 114/123/98
f 74/166/58 72/198/56 122/201/106 123/167/107
f 92/211/76 90/202/74 131/203/115 132/212/116
f 48/55/32 46/54/30 110/213/94 109/170/93
f 46/54/30 108/127/92 140/214/124 110/213/94
f 66/75/50 64/73/48 118/206/102 119/172/103
f 84/95/68 82/93/66 127/207/111 128/174/112
f 102/115/86 100/113/84 136/208/120 137/215/121
f 141/216/125 142/217/126 172/218/156 171/219/155 170/220/154 169/221/153 168/222/152 167/223/151 166/224/150 165/225/149 164/226/148 163/227/147 162/228/146 161/229/145 160/230/144 159/231/143 158/232/142 157/164/141 156/163/140 155/233/139 154/234/138 153/235/137 152/236/136 151/237/135 150/238/134 149/239/133 148/240/132 147/241/131 146/242/130 145/243/129 144/244/128 143/245/127
f 112/246/96 111/247/95 143/245/127 144/244/128
f 139/192/123 138/179/122 170/220/154 171/219/155
f 126/248/110 125/161/109 157/164/141 158/232/142
f 113/210/97 112/246/96 144/244/128 145/243/129
f 140/205/124 139/192/123 171/219/155 172/218/156
f 127/249/111 126/248/110 158/232/142 159/231/143
f 114/123/98 113/210/97 145/243/129 146/242/130
f 110/250/94 140/205/124 172/218/156 142/217/126
f 128/251/112 127/249/111 159/231/143 160/230/144
f 115/124/99 114/123/98 146/242/130 147/241/131
f 129/189/113 128/251/112 160/230/144 161/229/145
f 116/181/100 115/124/99 147/241/131 148/240/132
f 130/190/114 129/189/113 161/229/145 162/228/146
f 117/252/101 116/181/100 148/240/132 149/239/133
f 131/203/115 130/190/114 162/228/146 163/227/147
f 118/253/102 117/252/101 149/239/133 150/238/134
f 132/212/116 131/203/115 163/227/147 164/226/148
f 119/254/103 118/253/102 150/238/134 151/237/135
f 133/255/117 132/212/116 164/226/148 165/225/149
f 120/256/104 119/254/103 151/237/135 152/236/136
f 134/257/118 133/255/117 165/225/149 166/224/150
f 121/200/105 120/256/104 152/236/136 153/235/137
f 135/258/119 134/257/118 166/224/150 167/223/151
f 122/201/106 121/200/105 153/235/137 154/234/138
f 136/259/120 135/258/119 167/223/151 168/222/152
f 123/167/107 122/201/106 154/234/138 155/233/139
f 109/260/93 110/250/94 142/217/126 141/216/125
f 137/178/121 136/259/120 168/222/152 169/221/153
f 124/162/108 123/167/107 155/233/139 156/163/140
f 111/247/95 109/260/93 141/216/125 143/245/127
f 138/179/122 137/178/121 169/221/153 170/220/154
