# Blender 4.5.0
# www.blender.org
mtllib tree.mtl
o Cylinder
v 0.000000 0.000000 -1.000000
v 0.000000 16.000000 -0.600000
v 0.195090 0.000000 -0.980785
v 0.117054 16.000000 -0.588471
v 0.382683 0.000000 -0.923880
v 0.229610 16.000000 -0.554328
v 0.555570 0.000000 -0.831470
v 0.333342 16.000000 -0.498882
v 0.707107 0.000000 -0.707107
v 0.424264 16.000000 -0.424264
v 0.831470 0.000000 -0.555570
v 0.498882 16.000000 -0.333342
v 0.923880 0.000000 -0.382683
v 0.554328 16.000000 -0.229610
v 0.980785 0.000000 -0.195090
v 0.588471 16.000000 -0.117054
v 1.000000 0.000000 0.000000
v 0.600000 16.000000 -0.000000
v 0.980785 0.000000 0.195090
v 0.588471 16.000000 0.117054
v 0.923880 0.000000 0.382683
v 0.554328 16.000000 0.229610
v 0.831470 0.000000 0.555570
v 0.498882 16.000000 0.333342
v 0.707107 0.000000 0.707107
v 0.424264 16.000000 0.424264
v 0.555570 0.000000 0.831470
v 0.333342 16.000000 0.498882
v 0.382683 0.000000 0.923880
v 0.229610 16.000000 0.554328
v 0.195090 0.000000 0.980785
v 0.117054 16.000000 0.588471
v 0.000000 0.000000 1.000000
v 0.000000 16.000000 0.600000
v -0.195090 0.000000 0.980785
v -0.117054 16.000000 0.588471
v -0.382683 0.000000 0.923880
v -0.229610 16.000000 0.554328
v -0.555570 0.000000 0.831470
v -0.333342 16.000000 0.498882
v -0.707107 0.000000 0.707107
v -0.424264 16.000000 0.424264
v -0.831470 0.000000 0.555570
v -0.498882 16.000000 0.333342
v -0.923880 0.000000 0.382683
v -0.554328 16.000000 0.229610
v -0.980785 0.000000 0.195090
v -0.588471 16.000000 0.117054
v -1.000000 0.000000 0.000000
v -0.600000 16.000000 -0.000000
v -0.980785 0.000000 -0.195090
v -0.588471 16.000000 -0.117054
v -0.923880 0.000000 -0.382683
v -0.554328 16.000000 -0.229610
v -0.831470 0.000000 -0.555570
v -0.498882 16.000000 -0.333342
v -0.707107 0.000000 -0.707107
v -0.424264 16.000000 -0.424264
v -0.555570 0.000000 -0.831470
v -0.333342 16.000000 -0.498882
v -0.382683 0.000000 -0.923880
v -0.229610 16.000000 -0.554328
v -0.195090 0.000000 -0.980785
v -0.117054 16.000000 -0.588471
vn -0.0000 -0.6766 -0.7364
vn -0.0000 0.6947 -0.7193
vn 0.1437 -0.6766 -0.7222
vn 0.1403 0.6947 -0.7055
vn 0.2818 -0.6766 -0.6803
vn 0.2753 0.6947 -0.6645
vn 0.4091 -0.6766 -0.6123
vn 0.3996 0.6947 -0.5981
vn 0.5207 -0.6766 -0.5207
vn 0.5086 0.6947 -0.5086
vn 0.6123 -0.6766 -0.4091
vn 0.5981 0.6947 -0.3996
vn 0.6803 -0.6766 -0.2818
vn 0.6645 0.6947 -0.2753
vn 0.7222 -0.6766 -0.1437
vn 0.7055 0.6947 -0.1403
vn 0.7364 -0.6766 -0.0000
vn 0.7193 0.6947 -0.0000
vn 0.7222 -0.6766 0.1437
vn 0.7055 0.6947 0.1403
vn 0.6803 -0.6766 0.2818
vn 0.6645 0.6947 0.2753
vn 0.6123 -0.6766 0.4091
vn 0.5981 0.6947 0.3996
vn 0.5207 -0.6766 0.5207
vn 0.5086 0.6947 0.5086
vn 0.4091 -0.6766 0.6123
vn 0.3996 0.6947 0.5981
vn 0.2818 -0.6766 0.6803
vn 0.2753 0.6947 0.6645
vn 0.1437 -0.6766 0.7222
vn 0.1403 0.6947 0.7055
vn -0.0000 -0.6766 0.7364
vn -0.0000 0.6947 0.7193
vn -0.1437 -0.6766 0.7222
vn -0.1403 0.6947 0.7055
vn -0.2818 -0.6766 0.6803
vn -0.2753 0.6947 0.6645
vn -0.4091 -0.6766 0.6123
vn -0.3996 0.6947 0.5981
vn -0.5207 -0.6766 0.5207
vn -0.5086 0.6947 0.5086
vn -0.6123 -0.6766 0.4091
vn -0.5981 0.6947 0.3996
vn -0.6803 -0.6766 0.2818
vn -0.6645 0.6947 0.2753
vn -0.7222 -0.6766 0.1437
vn -0.7055 0.6947 0.1403
vn -0.7364 -0.6766 -0.0000
vn -0.7193 0.6947 -0.0000
vn -0.7222 -0.6766 -0.1437
vn -0.7055 0.6947 -0.1403
vn -0.6803 -0.6766 -0.2818
vn -0.6645 0.6947 -0.2753
vn -0.6123 -0.6766 -0.4091
vn -0.5981 0.6947 -0.3996
vn -0.5207 -0.6766 -0.5207
vn -0.5086 0.6947 -0.5086
vn -0.4091 -0.6766 -0.6123
vn -0.3996 0.6947 -0.5981
vn -0.2818 -0.6766 -0.6803
vn -0.2753 0.6947 -0.6645
vn -0.1437 -0.6766 -0.7222
vn -0.1403 0.6947 -0.7055
vt 1.000000 0.465000
vt 1.000000 4.465000
vt 0.968750 4.465000
vt 0.968750 0.465000
vt 0.937500 4.465000
vt 0.937500 0.465000
vt 0.906250 4.465000
vt 0.906250 0.465000
vt 0.875000 4.465000
vt 0.875000 0.465000
vt 0.843750 4.465000
vt 0.843750 0.465000
vt 0.812500 4.465000
vt 0.812500 0.465000
vt 0.781250 4.465000
vt 0.781250 0.465000
vt 0.750000 4.465000
vt 0.750000 0.465000
vt 0.718750 4.465000
vt 0.718750 0.465000
vt 0.687500 4.465000
vt 0.687500 0.465000
vt 0.656250 4.465000
vt 0.656250 0.465000
vt 0.625000 4.465000
vt 0.625000 0.465000
vt 0.593750 4.465000
vt 0.593750 0.465000
vt 0.562500 4.465000
vt 0.562500 0.465000
vt 0.531250 4.465000
vt 0.531250 0.465000
vt 0.500000 4.465000
vt 0.500000 0.465000
vt 0.468750 4.465000
vt 0.468750 0.465000
vt 0.437500 4.465000
vt 0.437500 0.465000
vt 0.406250 4.465000
vt 0.406250 0.465000
vt 0.375000 4.465000
vt 0.375000 0.465000
vt 0.343750 4.465000
vt 0.343750 0.465000
vt 0.312500 4.465000
vt 0.312500 0.465000
vt 0.281250 4.465000
vt 0.281250 0.465000
vt 0.250000 4.465000
vt 0.250000 0.465000
vt 0.218750 4.465000
vt 0.218750 0.465000
vt 0.187500 4.465000
vt 0.187500 0.465000
vt 0.156250 4.465000
vt 0.156250 0.465000
vt 0.125000 4.465000
vt 0.125000 0.465000
vt 0.093750 4.465000
vt 0.093750 0.465000
vt 0.062500 4.465000
vt 0.062500 0.465000
vt 0.296822 0.348108
vt 0.250000 0.385000
vt 0.203178 0.348108
vt 0.158156 0.238849
vt 0.116663 0.061422
vt 0.080294 -0.177355
vt 0.050447 -0.468305
vt 0.028269 -0.800248
vt 0.014612 -1.160426
vt 0.010000 -1.535000
vt 0.014612 -1.909573
vt 0.028269 -2.269752
vt 0.050447 -2.601695
vt 0.080294 -2.892645
vt 0.116663 -3.131422
vt 0.158156 -3.308848
vt 0.203178 -3.418108
vt 0.250000 -3.455000
vt 0.296822 -3.418108
vt 0.341844 -3.308848
vt 0.383337 -3.131422
vt 0.419706 -2.892645
vt 0.449553 -2.601695
vt 0.471731 -2.269752
vt 0.485388 -1.909573
vt 0.490000 -1.535000
vt 0.485388 -1.160426
vt 0.471731 -0.800248
vt 0.449553 -0.468305
vt 0.419706 -0.177355
vt 0.383337 0.061422
vt 0.341844 0.238849
vt 0.031250 4.465000
vt 0.031250 0.465000
vt 0.000000 4.465000
vt 0.000000 0.465000
vt 0.750000 0.385000
vt 0.796822 0.348108
vt 0.841844 0.238849
vt 0.883337 0.061422
vt 0.919706 -0.177355
vt 0.949553 -0.468305
vt 0.971731 -0.800248
vt 0.985388 -1.160426
vt 0.990000 -1.535000
vt 0.985388 -1.909573
vt 0.971731 -2.269752
vt 0.949553 -2.601695
vt 0.919706 -2.892645
vt 0.883337 -3.131422
vt 0.841844 -3.308848
vt 0.796822 -3.418108
vt 0.750000 -3.455000
vt 0.703178 -3.418108
vt 0.658156 -3.308848
vt 0.616663 -3.131422
vt 0.580294 -2.892645
vt 0.550447 -2.601695
vt 0.528269 -2.269752
vt 0.514612 -1.909573
vt 0.510000 -1.535000
vt 0.514612 -1.160426
vt 0.528269 -0.800248
vt 0.550447 -0.468305
vt 0.580294 -0.177355
vt 0.616663 0.061422
vt 0.658156 0.238849
vt 0.703178 0.348108
s 1
usemtl Material.001
f 1/1/1 2/2/2 4/3/4 3/4/3
f 3/4/3 4/3/4 6/5/6 5/6/5
f 5/6/5 6/5/6 8/7/8 7/8/7
f 7/8/7 8/7/8 10/9/10 9/10/9
f 9/10/9 10/9/10 12/11/12 11/12/11
f 11/12/11 12/11/12 14/13/14 13/14/13
f 13/14/13 14/13/14 16/15/16 15/16/15
f 15/16/15 16/15/16 18/17/18 17/18/17
f 17/18/17 18/17/18 20/19/20 19/20/19
f 19/20/19 20/19/20 22/21/22 21/22/21
f 21/22/21 22/21/22 24/23/24 23/24/23
f 23/24/23 24/23/24 26/25/26 25/26/25
f 25/26/25 26/25/26 28/27/28 27/28/27
f 27/28/27 28/27/28 30/29/30 29/30/29
f 29/30/29 30/29/30 32/31/32 31/32/31
f 31/32/31 32/31/32 34/33/34 33/34/33
f 33/34/33 34/33/34 36/35/36 35/36/35
f 35/36/35 36/35/36 38/37/38 37/38/37
f 37/38/37 38/37/38 40/39/40 39/40/39
f 39/40/39 40/39/40 42/41/42 41/42/41
f 41/42/41 42/41/42 44/43/44 43/44/43
f 43/44/43 44/43/44 46/45/46 45/46/45
f 45/46/45 46/45/46 48/47/48 47/48/47
f 47/48/47 48/47/48 50/49/50 49/50/49
f 49/50/49 50/49/50 52/51/52 51/52/51
f 51/52/51 52/51/52 54/53/54 53/54/53
f 53/54/53 54/53/54 56/55/56 55/56/55
f 55/56/55 56/55/56 58/57/58 57/58/57
f 57/58/57 58/57/58 60/59/60 59/60/59
f 59/60/59 60/59/60 62/61/62 61/62/61
f 4/63/4 2/64/2 64/65/64 62/66/62 60/67/60 58/68/58 56/69/56 54/70/54 52/71/52 50/72/50 48/73/48 46/74/46 44/75/44 42/76/42 40/77/40 38/78/38 36/79/36 34/80/34 32/81/32 30/82/30 28/83/28 26/84/26 24/85/24 22/86/22 20/87/20 18/88/18 16/89/16 14/90/14 12/91/12 10/92/10 8/93/8 6/94/6
f 61/62/61 62/61/62 64/95/64 63/96/63
f 63/96/63 64/95/64 2/97/2 1/98/1
f 1/99/1 3/100/3 5/101/5 7/102/7 9/103/9 11/104/11 13/105/13 15/106/15 17/107/17 19/108/19 21/109/21 23/110/23 25/111/25 27/112/27 29/113/29 31/114/31 33/115/33 35/116/35 37/117/37 39/118/39 41/119/41 43/120/43 45/121/45 47/122/47 49/123/49 51/124/51 53/125/53 55/126/55 57/127/57 59/128/59 61/129/61 63/130/63
o Icosphere
v 0.000000 12.000000 0.000000
v 2.894429 14.211122 2.102901
v -1.105552 14.211121 3.402597
v -3.577705 14.211138 0.000000
v -1.105552 14.211121 -3.402597
v 2.894429 14.211122 -2.102901
v 1.105552 17.788879 3.402597
v -2.894429 17.788877 2.102901
v -2.894429 17.788877 -2.102901
v 1.105552 17.788879 -3.402597
v 3.577705 17.788862 0.000000
v 0.000000 20.000000 0.000000
v -0.649822 12.597383 1.999981
v 1.701291 12.597383 1.236046
v 1.051475 13.897049 3.236047
v 3.402591 13.897057 0.000000
v 1.701291 12.597383 -1.236046
v -2.102919 12.597393 0.000000
v -2.752758 13.897055 1.999988
v -0.649822 12.597383 -1.999981
v -2.752758 13.897055 -1.999988
v 1.051475 13.897049 -3.236047
v 3.804231 16.000000 1.236050
v 3.804231 16.000000 -1.236050
v 0.000000 16.000000 4.000000
v 2.351142 16.000000 3.236067
v -3.804231 16.000000 1.236050
v -2.351142 16.000000 3.236067
v -2.351142 16.000000 -3.236067
v -3.804231 16.000000 -1.236050
v 2.351142 16.000000 -3.236067
v 0.000000 16.000000 -4.000000
v 2.752758 18.102945 1.999988
v -1.051475 18.102951 3.236047
v -3.402591 18.102943 0.000000
v -1.051475 18.102951 -3.236047
v 2.752758 18.102945 -1.999988
v 0.649822 19.402618 1.999981
v 2.102919 19.402607 0.000000
v -1.701291 19.402617 1.236046
v -1.701291 19.402617 -1.236046
v 0.649822 19.402618 -1.999981
vn -0.0000 -1.0000 -0.0000
vn 0.7236 -0.4472 0.5257
vn -0.2764 -0.4472 0.8506
vn -0.8944 -0.4472 -0.0000
vn -0.2764 -0.4472 -0.8506
vn 0.7236 -0.4472 -0.5257
vn 0.2764 0.4472 0.8506
vn -0.7236 0.4472 0.5257
vn -0.7236 0.4472 -0.5257
vn 0.2764 0.4472 -0.8506
vn 0.8944 0.4472 -0.0000
vn -0.0000 1.0000 -0.0000
vn -0.1625 -0.8507 0.5000
vn 0.4253 -0.8507 0.3090
vn 0.2629 -0.5257 0.8090
vn 0.8506 -0.5257 -0.0000
vn 0.4253 -0.8507 -0.3090
vn -0.5257 -0.8507 -0.0000
vn -0.6882 -0.5257 0.5000
vn -0.1625 -0.8507 -0.5000
vn -0.6882 -0.5257 -0.5000
vn 0.2629 -0.5257 -0.8090
vn 0.9511 -0.0000 0.3090
vn 0.9511 -0.0000 -0.3090
vn -0.0000 -0.0000 1.0000
vn 0.5878 -0.0000 0.8090
vn -0.9511 -0.0000 0.3090
vn -0.5878 -0.0000 0.8090
vn -0.5878 -0.0000 -0.8090
vn -0.9511 -0.0000 -0.3090
vn 0.5878 -0.0000 -0.8090
vn -0.0000 -0.0000 -1.0000
vn 0.6882 0.5257 0.5000
vn -0.2629 0.5257 0.8090
vn -0.8506 0.5257 -0.0000
vn -0.2629 0.5257 -0.8090
vn 0.6882 0.5257 -0.5000
vn 0.1625 0.8507 0.5000
vn 0.5257 0.8507 -0.0000
vn -0.4253 0.8507 0.3090
vn -0.4253 0.8507 -0.3090
vn 0.1625 0.8507 -0.5000
vt -4.590896 -3.542865
vt -3.863624 -2.283177
vt -5.318168 -2.283177
vt -3.136352 -1.023489
vt -2.409080 -2.283177
vt -1.681808 -1.023489
vt 7.045456 -3.542865
vt 7.772728 -2.283177
vt 6.318184 -2.283177
vt 4.136368 -3.542865
vt 4.863640 -2.283177
vt 3.409096 -2.283177
vt 1.227280 -3.542865
vt 1.954552 -2.283177
vt 0.500008 -2.283177
vt -2.409080 0.236191
vt -6.045440 -1.023489
vt -4.590896 -1.023489
vt -5.318168 0.236191
vt 5.590912 -1.023489
vt 7.045456 -1.023489
vt 6.318184 0.236191
vt 2.681824 -1.023489
vt 4.136368 -1.023489
vt 3.409096 0.236191
vt -0.227264 -1.023489
vt 1.227280 -1.023489
vt 0.500008 0.236191
vt -3.863624 0.236191
vt -6.772720 0.236191
vt 4.863640 0.236191
vt 1.954552 0.236191
vt -0.954536 0.236191
vt -4.590896 1.495871
vt -3.136352 1.495871
vt -3.863624 2.755559
vt -7.500000 1.495871
vt -6.045448 1.495871
vt -6.772720 2.755559
vt 4.136368 1.495871
vt 5.590912 1.495871
vt 4.863640 2.755559
vt 1.227280 1.495871
vt 2.681824 1.495871
vt 1.954552 2.755559
vt -1.681808 1.495871
vt -0.227264 1.495871
vt -0.954536 2.755559
vt 0.500008 2.755559
vt -0.227264 4.015247
vt 3.409096 2.755559
vt 2.681824 4.015247
vt 6.318184 2.755559
vt 5.590912 4.015247
vt 7.045456 1.495871
vt -5.318168 2.755559
vt -6.045440 4.015247
vt -2.409080 2.755559
vt -3.136352 4.015247
vt 7.772728 0.236191
vt 8.500000 -1.023489
vt -0.954536 -2.283177
vt -1.681808 -3.542865
s 1
usemtl Material.002
f 65/131/65 78/132/78 77/133/77
f 66/134/66 78/135/78 80/136/80
f 65/137/65 77/138/77 82/139/82
f 65/140/65 82/141/82 84/142/84
f 65/143/65 84/144/84 81/145/81
f 66/134/66 80/136/80 87/146/87
f 67/147/67 79/148/79 89/149/89
f 68/150/68 83/151/83 91/152/91
f 69/153/69 85/154/85 93/155/93
f 70/156/70 86/157/86 95/158/95
f 66/134/66 87/146/87 90/159/90
f 67/147/67 89/149/89 92/160/92
f 68/150/68 91/152/91 94/161/94
f 69/153/69 93/155/93 96/162/96
f 70/156/70 95/158/95 88/163/88
f 71/164/71 97/165/97 102/166/102
f 72/167/72 98/168/98 104/169/104
f 73/170/73 99/171/99 105/172/105
f 74/173/74 100/174/100 106/175/106
f 75/176/75 101/177/101 103/178/103
f 103/178/103 106/179/106 76/180/76
f 103/178/103 101/177/101 106/179/106
f 101/177/101 74/173/74 106/179/106
f 106/175/106 105/181/105 76/182/76
f 106/175/106 100/174/100 105/181/105
f 100/174/100 73/170/73 105/181/105
f 105/172/105 104/183/104 76/184/76
f 105/172/105 99/171/99 104/183/104
f 99/171/99 72/185/72 104/183/104
f 104/169/104 102/186/102 76/187/76
f 104/169/104 98/168/98 102/186/102
f 98/168/98 71/164/71 102/186/102
f 102/166/102 103/188/103 76/189/76
f 102/166/102 97/165/97 103/188/103
f 97/165/97 75/176/75 103/188/103
f 88/163/88 101/177/101 75/176/75
f 88/163/88 95/158/95 101/177/101
f 95/158/95 74/173/74 101/177/101
f 96/162/96 100/174/100 74/173/74
f 96/162/96 93/155/93 100/174/100
f 93/155/93 73/170/73 100/174/100
f 94/161/94 99/171/99 73/170/73
f 94/161/94 91/152/91 99/171/99
f 91/152/91 72/185/72 99/171/99
f 92/160/92 98/168/98 72/167/72
f 92/160/92 89/149/89 98/168/98
f 89/149/89 71/164/71 98/168/98
f 90/159/90 97/165/97 71/164/71
f 90/159/90 87/146/87 97/165/97
f 87/146/87 75/176/75 97/165/97
f 95/158/95 96/162/96 74/173/74
f 95/158/95 86/157/86 96/162/96
f 86/157/86 69/153/69 96/162/96
f 93/155/93 94/161/94 73/170/73
f 93/155/93 85/154/85 94/161/94
f 85/154/85 68/150/68 94/161/94
f 91/152/91 92/190/92 72/185/72
f 91/152/91 83/151/83 92/190/92
f 83/151/83 67/191/67 92/190/92
f 89/149/89 90/159/90 71/164/71
f 89/149/89 79/148/79 90/159/90
f 79/148/79 66/134/66 90/159/90
f 87/146/87 88/163/88 75/176/75
f 87/146/87 80/136/80 88/163/88
f 80/136/80 70/156/70 88/163/88
f 81/145/81 86/157/86 70/156/70
f 81/145/81 84/144/84 86/157/86
f 84/144/84 69/153/69 86/157/86
f 84/142/84 85/154/85 69/153/69
f 84/142/84 82/141/82 85/154/85
f 82/141/82 68/150/68 85/154/85
f 82/139/82 83/151/83 68/150/68
f 82/139/82 77/138/77 83/151/83
f 77/138/77 67/191/67 83/151/83
f 80/136/80 81/192/81 70/156/70
f 80/136/80 78/135/78 81/192/81
f 78/135/78 65/193/65 81/192/81
f 77/133/77 79/148/79 67/147/67
f 77/133/77 78/132/78 79/148/79
f 78/132/78 66/134/66 79/148/79
