# Blender 4.4.3
# www.blender.org
mtllib window.mtl
o Cube
v -0.703125 0.400000 0.250000
v -0.703125 1.525000 0.250000
v -0.703125 0.400000 -0.250000
v -0.703125 1.525000 -0.250000
v -0.546875 0.400000 0.250000
v -0.546875 1.525000 0.250000
v -0.546875 0.400000 -0.250000
v -0.546875 1.525000 -0.250000
v -0.675771 1.763922 0.250000
v -0.675771 1.763922 -0.250000
v -0.524845 1.723482 -0.250000
v -0.524845 1.723482 0.250000
v -0.612328 1.990407 0.250000
v -0.612328 1.990407 -0.250000
v -0.477012 1.912282 -0.250000
v -0.477012 1.912282 0.250000
v -0.512769 2.157525 0.250000
v -0.512769 2.157525 -0.250000
v -0.402283 2.047040 -0.250000
v -0.402283 2.047040 0.250000
v -0.373128 2.293401 0.250000
v -0.373128 2.293401 -0.250000
v -0.295003 2.158085 -0.250000
v -0.295003 2.158085 0.250000
v -0.246032 2.363706 0.250000
v -0.246032 2.363706 -0.250000
v -0.205592 2.212780 -0.250000
v -0.205592 2.212780 0.250000
v -0.059230 2.398721 0.250000
v -0.059230 2.398721 -0.250000
v -0.059230 2.242471 -0.250000
v -0.059230 2.242471 0.250000
v 0.000000 2.398721 0.250000
v 0.000000 2.398721 -0.250000
v 0.000000 2.242471 -0.250000
v 0.000000 2.242471 0.250000
v 0.703125 0.400000 0.250000
v 0.703125 1.525000 0.250000
v 0.703125 0.400000 -0.250000
v 0.703125 1.525000 -0.250000
v 0.546875 0.400000 0.250000
v 0.546875 1.525000 0.250000
v 0.546875 0.400000 -0.250000
v 0.546875 1.525000 -0.250000
v 0.675771 1.763922 0.250000
v 0.675771 1.763922 -0.250000
v 0.524845 1.723482 -0.250000
v 0.524845 1.723482 0.250000
v 0.612328 1.990407 0.250000
v 0.612328 1.990407 -0.250000
v 0.477012 1.912282 -0.250000
v 0.477012 1.912282 0.250000
v 0.512769 2.157525 0.250000
v 0.512769 2.157525 -0.250000
v 0.402283 2.047040 -0.250000
v 0.402283 2.047040 0.250000
v 0.373128 2.293401 0.250000
v 0.373128 2.293401 -0.250000
v 0.295003 2.158085 -0.250000
v 0.295003 2.158085 0.250000
v 0.246032 2.363706 0.250000
v 0.246032 2.363706 -0.250000
v 0.205592 2.212780 -0.250000
v 0.205592 2.212780 0.250000
v 0.059230 2.398721 0.250000
v 0.059230 2.398721 -0.250000
v 0.059230 2.242471 -0.250000
v 0.059230 2.242471 0.250000
vn -0.5774 -0.5774 0.5774
vn -0.7183 0.0410 0.6945
vn -0.5774 -0.5774 -0.5774
vn -0.7183 0.0410 -0.6945
vn 0.5774 -0.5774 0.5774
vn 0.6932 -0.0384 0.7198
vn 0.5774 -0.5774 -0.5774
vn 0.6932 -0.0384 -0.7198
vn -0.7106 0.1393 0.6897
vn -0.7106 0.1393 -0.6897
vn 0.6799 -0.1232 -0.7229
vn 0.6799 -0.1232 0.7229
vn -0.6750 0.2895 0.6786
vn -0.6750 0.2895 -0.6786
vn 0.6281 -0.2489 -0.7373
vn 0.6281 -0.2489 0.7373
vn -0.5764 0.4549 0.6789
vn -0.5764 0.4549 -0.6789
vn 0.5426 -0.4017 -0.7377
vn 0.5426 -0.4017 0.7377
vn -0.4379 0.5900 0.6784
vn -0.4379 0.5900 -0.6784
vn 0.4230 -0.5276 -0.7367
vn 0.4230 -0.5276 0.7367
vn -0.2504 0.6960 0.6730
vn -0.2504 0.6960 -0.6730
vn 0.2427 -0.6173 -0.7483
vn 0.2427 -0.6173 0.7483
vn -0.0672 0.7237 0.6869
vn -0.0672 0.7237 -0.6869
vn 0.0682 -0.6797 -0.7303
vn 0.0682 -0.6797 0.7303
vn 0.3333 0.6667 0.6667
vn 0.3333 0.6667 -0.6667
vn 0.3333 -0.6667 -0.6667
vn 0.3333 -0.6667 0.6667
vn 0.7183 0.0410 0.6945
vn 0.7183 0.0410 -0.6945
vn -0.6932 -0.0384 0.7198
vn -0.6932 -0.0384 -0.7198
vn 0.7106 0.1393 0.6897
vn 0.7106 0.1393 -0.6897
vn -0.6799 -0.1232 -0.7229
vn -0.6799 -0.1232 0.7229
vn 0.6750 0.2895 0.6786
vn 0.6750 0.2895 -0.6786
vn -0.6281 -0.2489 -0.7373
vn -0.6281 -0.2489 0.7373
vn 0.5764 0.4549 0.6789
vn 0.5764 0.4549 -0.6789
vn -0.5426 -0.4017 -0.7377
vn -0.5426 -0.4017 0.7377
vn 0.4379 0.5900 0.6784
vn 0.4379 0.5900 -0.6784
vn -0.4230 -0.5276 -0.7367
vn -0.4230 -0.5276 0.7367
vn 0.2504 0.6960 0.6730
vn 0.2504 0.6960 -0.6730
vn -0.2427 -0.6173 -0.7483
vn -0.2427 -0.6173 0.7483
vn 0.0672 0.7237 0.6869
vn 0.0672 0.7237 -0.6869
vn -0.0682 -0.6797 -0.7303
vn -0.0682 -0.6797 0.7303
vt 0.375000 0.000000
vt 0.625000 0.000000
vt 0.625000 0.250000
vt 0.375000 0.250000
vt 0.625000 0.500000
vt 0.375000 0.500000
vt 0.625000 0.750000
vt 0.375000 0.750000
vt 0.625000 1.000000
vt 0.375000 1.000000
vt 0.125000 0.500000
vt 0.125000 0.750000
vt 0.875000 0.500000
vt 0.875000 0.750000
s 1
f 1/1/1 2/2/2 4/3/4 3/4/3
f 3/4/3 4/3/4 8/5/8 7/6/7
f 7/6/7 8/5/8 6/7/6 5/8/5
f 5/8/5 6/7/6 2/9/2 1/10/1
f 3/11/3 7/6/7 5/8/5 1/12/1
f 6/7/6 8/5/8 11/5/11 12/7/12
f 9/9/9 12/7/12 16/7/16 13/9/13
f 4/3/4 2/2/2 9/2/9 10/3/10
f 2/9/2 6/7/6 12/7/12 9/9/9
f 8/5/8 4/3/4 10/3/10 11/5/11
f 16/7/16 15/5/15 19/5/19 20/7/20
f 11/5/11 10/3/10 14/3/14 15/5/15
f 12/7/12 11/5/11 15/5/15 16/7/16
f 10/3/10 9/2/9 13/2/13 14/3/14
f 20/7/20 19/5/19 23/5/23 24/7/24
f 14/3/14 13/2/13 17/2/17 18/3/18
f 13/9/13 16/7/16 20/7/20 17/9/17
f 15/5/15 14/3/14 18/3/18 19/5/19
f 24/7/24 23/5/23 27/5/27 28/7/28
f 18/3/18 17/2/17 21/2/21 22/3/22
f 17/9/17 20/7/20 24/7/24 21/9/21
f 19/5/19 18/3/18 22/3/22 23/5/23
f 26/3/26 25/2/25 29/2/29 30/3/30
f 22/3/22 21/2/21 25/2/25 26/3/26
f 21/9/21 24/7/24 28/7/28 25/9/25
f 23/5/23 22/3/22 26/3/26 27/5/27
f 32/7/32 31/5/31 35/5/35 36/7/36
f 25/9/25 28/7/28 32/7/32 29/9/29
f 27/5/27 26/3/26 30/3/30 31/5/31
f 28/7/28 27/5/27 31/5/31 32/7/32
f 35/5/35 34/13/34 33/14/33 36/7/36
f 30/3/30 29/2/29 33/2/33 34/3/34
f 29/9/29 32/7/32 36/7/36 33/9/33
f 31/5/31 30/3/30 34/3/34 35/5/35
f 37/1/5 39/4/7 40/3/38 38/2/37
f 39/4/7 43/6/3 44/5/40 40/3/38
f 43/6/3 41/8/1 42/7/39 44/5/40
f 41/8/1 37/10/5 38/9/37 42/7/39
f 39/11/7 37/12/5 41/8/1 43/6/3
f 42/7/39 48/7/44 47/5/43 44/5/40
f 45/9/41 49/9/45 52/7/48 48/7/44
f 40/3/38 46/3/42 45/2/41 38/2/37
f 38/9/37 45/9/41 48/7/44 42/7/39
f 44/5/40 47/5/43 46/3/42 40/3/38
f 52/7/48 56/7/52 55/5/51 51/5/47
f 47/5/43 51/5/47 50/3/46 46/3/42
f 48/7/44 52/7/48 51/5/47 47/5/43
f 46/3/42 50/3/46 49/2/45 45/2/41
f 56/7/52 60/7/56 59/5/55 55/5/51
f 50/3/46 54/3/50 53/2/49 49/2/45
f 49/9/45 53/9/49 56/7/52 52/7/48
f 51/5/47 55/5/51 54/3/50 50/3/46
f 60/7/56 64/7/60 63/5/59 59/5/55
f 54/3/50 58/3/54 57/2/53 53/2/49
f 53/9/49 57/9/53 60/7/56 56/7/52
f 55/5/51 59/5/55 58/3/54 54/3/50
f 62/3/58 66/3/62 65/2/61 61/2/57
f 58/3/54 62/3/58 61/2/57 57/2/53
f 57/9/53 61/9/57 64/7/60 60/7/56
f 59/5/55 63/5/59 62/3/58 58/3/54
f 68/7/64 36/7/36 35/5/35 67/5/63
f 61/9/57 65/9/61 68/7/64 64/7/60
f 63/5/59 67/5/63 66/3/62 62/3/58
f 64/7/60 68/7/64 67/5/63 63/5/59
f 66/3/62 34/3/34 33/2/33 65/2/61
f 65/9/61 33/9/33 36/7/36 68/7/64
f 67/5/63 35/5/35 34/3/34 66/3/62
o Cube.001
v -0.717424 0.000000 0.257424
v -0.717424 0.042576 0.300000
v -0.760000 0.042576 0.257424
v -0.717424 0.357424 0.300000
v -0.717424 0.400000 0.257424
v -0.760000 0.357424 0.257424
v -0.717424 0.000000 -0.257424
v -0.760000 0.042576 -0.257424
v -0.717424 0.042576 -0.300000
v -0.717424 0.400000 -0.257424
v -0.717424 0.357424 -0.300000
v -0.760000 0.357424 -0.257424
v 0.717424 0.000000 0.257424
v 0.760000 0.042576 0.257424
v 0.717424 0.042576 0.300000
v 0.717424 0.400000 0.257424
v 0.717424 0.357424 0.300000
v 0.760000 0.357424 0.257424
v 0.717424 0.000000 -0.257424
v 0.717424 0.042576 -0.300000
v 0.760000 0.042576 -0.257424
v 0.717424 0.400000 -0.257424
v 0.760000 0.357424 -0.257424
v 0.717424 0.357424 -0.300000
vn -0.3416 -0.8756 0.3416
vn -0.3416 -0.3416 0.8756
vn -0.8756 -0.3416 0.3416
vn -0.3416 0.3416 0.8756
vn -0.3416 0.8756 0.3416
vn -0.8756 0.3416 0.3416
vn -0.3416 -0.8756 -0.3416
vn -0.8756 -0.3416 -0.3416
vn -0.3416 -0.3416 -0.8756
vn -0.3416 0.8756 -0.3416
vn -0.3416 0.3416 -0.8756
vn -0.8756 0.3416 -0.3416
vn 0.3416 -0.8756 0.3416
vn 0.8756 -0.3416 0.3416
vn 0.3416 -0.3416 0.8756
vn 0.3416 0.8756 0.3416
vn 0.3416 0.3416 0.8756
vn 0.8756 0.3416 0.3416
vn 0.3416 -0.8756 -0.3416
vn 0.3416 -0.3416 -0.8756
vn 0.8756 -0.3416 -0.3416
vn 0.3416 0.8756 -0.3416
vn 0.8756 0.3416 -0.3416
vn 0.3416 0.3416 -0.8756
vt 0.401610 0.757003
vt 0.598390 0.757003
vt 0.598390 0.992997
vt 0.401610 0.992997
vt 0.401610 0.517740
vt 0.598390 0.517740
vt 0.598390 0.732260
vt 0.401610 0.732260
vt 0.632003 0.517740
vt 0.867997 0.517740
vt 0.867997 0.732260
vt 0.632003 0.732260
vt 0.401610 0.017740
vt 0.598390 0.017740
vt 0.598390 0.232260
vt 0.401610 0.232260
vt 0.401610 0.257003
vt 0.598390 0.257003
vt 0.598390 0.492997
vt 0.401610 0.492997
vt 0.132003 0.732260
vt 0.132003 0.750000
vt 0.125000 0.732260
vt 0.598390 0.000000
vt 0.625000 0.017740
vt 0.132003 0.517740
vt 0.125000 0.517740
vt 0.132003 0.500000
vt 0.625000 0.232260
vt 0.598390 0.250000
vt 0.367997 0.732260
vt 0.375000 0.732260
vt 0.367997 0.750000
vt 0.625000 0.757003
vt 0.598390 0.750000
vt 0.367997 0.517740
vt 0.367997 0.500000
vt 0.375000 0.517740
vt 0.625000 0.492997
vt 0.598390 0.500000
vt 0.401610 0.000000
vt 0.625000 0.257003
vt 0.625000 0.992997
s 1
f 83/15/79 85/16/81 72/17/68 70/18/66
f 89/19/85 91/20/87 86/21/82 82/22/78
f 90/23/86 78/24/74 73/25/69 84/26/80
f 71/27/67 74/28/70 80/29/76 76/30/72
f 77/31/73 79/32/75 92/33/88 88/34/84
f 69/35/65 70/36/66 71/37/67
f 72/38/68 73/39/69 74/28/70
f 75/40/71 76/41/72 77/42/73
f 78/43/74 79/44/75 80/29/76
f 81/45/77 82/46/78 83/47/79
f 84/48/80 85/16/81 86/49/82
f 87/50/83 88/51/84 89/52/85
f 90/53/86 91/54/87 92/33/88
f 75/40/71 69/35/65 71/37/67 76/41/72
f 70/55/66 72/38/68 74/28/70 71/27/67
f 73/39/69 78/43/74 80/29/76 74/28/70
f 79/32/75 77/31/73 76/30/72 80/29/76
f 87/50/83 75/40/71 77/42/73 88/51/84
f 78/56/74 90/53/86 92/33/88 79/32/75
f 91/20/87 89/19/85 88/34/84 92/33/88
f 81/45/77 87/50/83 89/19/85 82/22/78
f 90/23/86 84/26/80 86/21/82 91/20/87
f 85/16/81 83/15/79 82/22/78 86/21/82
f 69/35/65 81/45/77 83/47/79 70/36/66
f 84/48/80 73/57/69 72/17/68 85/16/81
f 75/40/71 87/50/83 81/45/77 69/35/65
o Cube.002
v -0.570000 0.400000 0.060000
v -0.570000 2.000000 0.060000
v -0.570000 0.400000 -0.060000
v -0.570000 2.000000 -0.060000
v 0.570000 0.400000 0.060000
v 0.570000 2.000000 0.060000
v 0.570000 0.400000 -0.060000
v 0.570000 2.000000 -0.060000
v 0.342000 0.400000 -0.060000
v 0.114000 0.400000 -0.060000
v -0.114000 0.400000 -0.060000
v -0.342000 0.400000 -0.060000
v -0.342000 2.237028 -0.060000
v -0.114000 2.337028 -0.060000
v 0.114000 2.337028 -0.060000
v 0.342000 2.237028 -0.060000
v -0.342000 0.400000 0.060000
v -0.114000 0.400000 0.060000
v 0.114000 0.400000 0.060000
v 0.342000 0.400000 0.060000
v 0.342000 2.237028 0.060000
v 0.114000 2.337028 0.060000
v -0.114000 2.337028 0.060000
v -0.342000 2.237028 0.060000
vn -0.3482 -0.3482 0.8704
vn -0.4086 0.1646 0.8978
vn -0.3482 -0.3482 -0.8704
vn -0.4086 0.1646 -0.8978
vn 0.3482 -0.3482 0.8704
vn 0.4086 0.1646 0.8978
vn 0.3482 -0.3482 -0.8704
vn 0.4086 0.1646 -0.8978
vn -0.0000 -0.3714 -0.9285
vn -0.2340 0.3355 -0.9125
vn -0.0843 0.4022 -0.9116
vn 0.0843 0.4022 -0.9116
vn 0.2340 0.3355 -0.9125
vn -0.0000 -0.3714 0.9285
vn 0.2340 0.3355 0.9125
vn 0.0843 0.4022 0.9116
vn -0.0843 0.4022 0.9116
vn -0.2340 0.3355 0.9125
vt 0.375000 0.000000
vt 0.625000 0.000000
vt 0.625000 0.250000
vt 0.375000 0.250000
vt 0.375000 0.450000
vt 0.625000 0.450000
vt 0.625000 0.500000
vt 0.375000 0.500000
vt 0.625000 0.750000
vt 0.375000 0.750000
vt 0.375000 0.950000
vt 0.625000 0.950000
vt 0.625000 1.000000
vt 0.375000 1.000000
vt 0.325000 0.500000
vt 0.325000 0.750000
vt 0.825000 0.500000
vt 0.875000 0.500000
vt 0.875000 0.750000
vt 0.825000 0.750000
vt 0.675000 0.500000
vt 0.675000 0.750000
vt 0.725000 0.500000
vt 0.725000 0.750000
vt 0.775000 0.500000
vt 0.775000 0.750000
vt 0.125000 0.500000
vt 0.175000 0.500000
vt 0.175000 0.750000
vt 0.125000 0.750000
vt 0.225000 0.500000
vt 0.225000 0.750000
vt 0.275000 0.500000
vt 0.275000 0.750000
vt 0.625000 0.800000
vt 0.375000 0.800000
vt 0.625000 0.850000
vt 0.375000 0.850000
vt 0.625000 0.900000
vt 0.375000 0.900000
vt 0.625000 0.300000
vt 0.375000 0.300000
vt 0.625000 0.350000
vt 0.375000 0.350000
vt 0.625000 0.400000
vt 0.375000 0.400000
s 1
usemtl Material.001
f 93/58/89 94/59/90 96/60/92 95/61/91
f 101/62/97 108/63/101 100/64/96 99/65/95
f 99/65/95 100/64/96 98/66/94 97/67/93
f 109/68/102 116/69/106 94/70/90 93/71/89
f 101/72/97 99/65/95 97/67/93 112/73/102
f 105/74/98 96/75/92 94/76/90 116/77/106
f 100/64/96 108/78/101 113/79/103 98/66/94
f 108/78/101 107/80/100 114/81/104 113/79/103
f 107/80/100 106/82/99 115/83/105 114/81/104
f 106/82/99 105/74/98 116/77/106 115/83/105
f 95/84/91 104/85/97 109/86/102 93/87/89
f 104/85/97 103/88/97 110/89/102 109/86/102
f 103/88/97 102/90/97 111/91/102 110/89/102
f 102/90/97 101/72/97 112/73/102 111/91/102
f 97/67/93 98/66/94 113/92/103 112/93/102
f 112/93/102 113/92/103 114/94/104 111/95/102
f 111/95/102 114/94/104 115/96/105 110/97/102
f 110/97/102 115/96/105 116/69/106 109/68/102
f 95/61/91 96/60/92 105/98/98 104/99/97
f 104/99/97 105/98/98 106/100/99 103/101/97
f 103/101/97 106/100/99 107/102/100 102/103/97
f 102/103/97 107/102/100 108/63/101 101/62/97
